<?xml version="1.0" encoding="utf-8"?>
<!-- Generator: Adobe Illustrator 25.2.1, SVG Export Plug-In . SVG Version: 6.00 Build 0)  -->
<svg version="1.1" id="Layer_1" xmlns="http://www.w3.org/2000/svg" xmlns:xlink="http://www.w3.org/1999/xlink" x="0px" y="0px"
	 viewBox="0 0 1728 1296" style="enable-background:new 0 0 1728 1296;" xml:space="preserve">
<style type="text/css">
	.st0{fill:#FF0000;}
	.st1{font-family:'ArialMT';}
	.st2{font-size:11.3386px;}
	.st3{fill:none;stroke:#000000;stroke-width:0.5669;stroke-linecap:round;stroke-linejoin:round;stroke-miterlimit:11.3386;}
	.st4{fill:none;stroke:#0000FF;stroke-width:0.5669;stroke-linecap:round;stroke-linejoin:round;stroke-miterlimit:11.3386;}
	.st5{fill:none;stroke:#0000FF;stroke-width:7.200000e-02;stroke-linecap:round;stroke-linejoin:round;stroke-miterlimit:11.3386;}
</style>
<g id="p-5">
	<text transform="matrix(1 0 0 1 313.2222 243.445)" class="st0 st1 st2">Top</text>
	<path class="st3" d="M42.9,428.9h32.6c0.3,0,0-0.3,0,0v8.2c0,0.2,0.1,0.3,0.3,0.3h17c0.2,0,0.3-0.1,0.3-0.3v-8.2c0-0.3-0.3,0,0,0
		h16.4c0.3,0,0-0.3,0,0v8.2c0,0.2,0.1,0.3,0.3,0.3h17c0.2,0,0.3-0.1,0.3-0.3v-8.2c0-0.3-0.3,0,0,0h16.4c0.3,0,0-0.3,0,0v8.2
		c0,0.2,0.1,0.3,0.3,0.3h17c0.2,0,0.3-0.1,0.3-0.3v-8.2c0-0.3-0.3,0,0,0h16.4c0.3,0,0-0.3,0,0v8.2c0,0.2,0.1,0.3,0.3,0.3h17
		c0.2,0,0.3-0.1,0.3-0.3v-8.2c0-0.3-0.3,0,0,0h16.4c0.3,0,0-0.3,0,0v8.2c0,0.2,0.1,0.3,0.3,0.3h17c0.2,0,0.3-0.1,0.3-0.3v-8.2
		c0-0.3-0.3,0,0,0h16.4c0.3,0,0-0.3,0,0v8.2c0,0.2,0.1,0.3,0.3,0.3h17c0.2,0,0.3-0.1,0.3-0.3v-8.2c0-0.3-0.3,0,0,0h16.4
		c0.3,0,0-0.3,0,0v8.2c0,0.2,0.1,0.3,0.3,0.3h17c0.2,0,0.3-0.1,0.3-0.3v-8.2c0-0.3-0.3,0,0,0h16.4c0.3,0,0-0.3,0,0v8.2
		c0,0.2,0.1,0.3,0.3,0.3h17c0.2,0,0.3-0.1,0.3-0.3v-8.2c0-0.3-0.3,0,0,0h16.4c0.3,0,0-0.3,0,0v8.2c0,0.2,0.1,0.3,0.3,0.3h17
		c0.2,0,0.3-0.1,0.3-0.3v-8.2c0-0.3-0.3,0,0,0h16.4c0.3,0,0-0.3,0,0v8.2c0,0.2,0.1,0.3,0.3,0.3h17c0.2,0,0.3-0.1,0.3-0.3v-8.2
		c0-0.3-0.3,0,0,0h16.4c0.3,0,0-0.3,0,0v8.2c0,0.2,0.1,0.3,0.3,0.3h17c0.2,0,0.3-0.1,0.3-0.3v-8.2c0-0.3-0.3,0,0,0h16.4
		c0.3,0,0-0.3,0,0v8.2c0,0.2,0.1,0.3,0.3,0.3h17c0.2,0,0.3-0.1,0.3-0.3v-8.2c0-0.3-0.3,0,0,0h16.4c0.3,0,0-0.3,0,0v8.2
		c0,0.2,0.1,0.3,0.3,0.3h17c0.2,0,0.3-0.1,0.3-0.3v-8.2c0-0.3-0.3,0,0,0h16.4c0.3,0,0-0.3,0,0v8.2c0,0.2,0.1,0.3,0.3,0.3h17
		c0.2,0,0.3-0.1,0.3-0.3v-8.2c0-0.3-0.3,0,0,0h16.4c0.3,0,0-0.3,0,0v8.2c0,0.2,0.1,0.3,0.3,0.3h17c0.2,0,0.3-0.1,0.3-0.3v-8.2
		c0-0.3-0.3,0,0,0h32.6c0.2,0,0.3-0.1,0.3-0.3V401c0-0.3-0.3,0,0,0h8.2c0.2,0,0.3-0.1,0.3-0.3v-17c0-0.2-0.1-0.3-0.3-0.3h-8.2
		c-0.3,0,0,0.3,0,0v-16.4c0-0.3-0.3,0,0,0h8.2c0.2,0,0.3-0.1,0.3-0.3v-17c0-0.2-0.1-0.3-0.3-0.3h-8.2c-0.3,0,0,0.3,0,0v-16.4
		c0-0.3-0.3,0,0,0h8.2c0.2,0,0.3-0.1,0.3-0.3v-17c0-0.2-0.1-0.3-0.3-0.3h-8.2c-0.3,0,0,0.3,0,0v-16.4c0-0.3-0.3,0,0,0h8.2
		c0.2,0,0.3-0.1,0.3-0.3v-17c0-0.2-0.1-0.3-0.3-0.3h-8.2c-0.3,0,0,0.3,0,0v-16.4c0-0.3-0.3,0,0,0h8.2c0.2,0,0.3-0.1,0.3-0.3v-17
		c0-0.2-0.1-0.3-0.3-0.3h-8.2c-0.3,0,0,0.3,0,0v-16.4c0-0.3-0.3,0,0,0h8.2c0.2,0,0.3-0.1,0.3-0.3v-17c0-0.2-0.1-0.3-0.3-0.3h-8.2
		c-0.3,0,0,0.3,0,0v-16.4c0-0.3-0.3,0,0,0h8.2c0.2,0,0.3-0.1,0.3-0.3v-17c0-0.2-0.1-0.3-0.3-0.3h-8.2c-0.3,0,0,0.3,0,0v-16.4
		c0-0.3-0.3,0,0,0h8.2c0.2,0,0.3-0.1,0.3-0.3v-17c0-0.2-0.1-0.3-0.3-0.3h-8.2c-0.3,0,0,0.3,0,0v-16.4c0-0.3-0.3,0,0,0h8.2
		c0.2,0,0.3-0.1,0.3-0.3v-17c0-0.2-0.1-0.3-0.3-0.3h-8.2c-0.3,0,0,0.3,0,0V94.8c0-0.3-0.3,0,0,0h8.2c0.2,0,0.3-0.1,0.3-0.3v-17
		c0-0.2-0.1-0.3-0.3-0.3h-8.2c-0.3,0,0,0.3,0,0V49.6c0-0.2-0.1-0.3-0.3-0.3h-32.6c-0.3,0,0,0.3,0,0v-8.2c0-0.2-0.1-0.3-0.3-0.3h-17
		c-0.2,0-0.3,0.1-0.3,0.3v8.2c0,0.3,0.3,0,0,0h-16.4c-0.3,0,0,0.3,0,0v-8.2c0-0.2-0.1-0.3-0.3-0.3h-17c-0.2,0-0.3,0.1-0.3,0.3v8.2
		c0,0.3,0.3,0,0,0h-16.4c-0.3,0,0,0.3,0,0v-8.2c0-0.2-0.1-0.3-0.3-0.3h-17c-0.2,0-0.3,0.1-0.3,0.3v8.2c0,0.3,0.3,0,0,0h-16.4
		c-0.3,0,0,0.3,0,0v-8.2c0-0.2-0.1-0.3-0.3-0.3h-17c-0.2,0-0.3,0.1-0.3,0.3v8.2c0,0.3,0.3,0,0,0h-16.4c-0.3,0,0,0.3,0,0v-8.2
		c0-0.2-0.1-0.3-0.3-0.3h-17c-0.2,0-0.3,0.1-0.3,0.3v8.2c0,0.3,0.3,0,0,0h-16.4c-0.3,0,0,0.3,0,0v-8.2c0-0.2-0.1-0.3-0.3-0.3h-17
		c-0.2,0-0.3,0.1-0.3,0.3v8.2c0,0.3,0.3,0,0,0h-16.4c-0.3,0,0,0.3,0,0v-8.2c0-0.2-0.1-0.3-0.3-0.3h-17c-0.2,0-0.3,0.1-0.3,0.3v8.2
		c0,0.3,0.3,0,0,0h-16.4c-0.3,0,0,0.3,0,0v-8.2c0-0.2-0.1-0.3-0.3-0.3h-17c-0.2,0-0.3,0.1-0.3,0.3v8.2c0,0.3,0.3,0,0,0h-16.4
		c-0.3,0,0,0.3,0,0v-8.2c0-0.2-0.1-0.3-0.3-0.3h-17c-0.2,0-0.3,0.1-0.3,0.3v8.2c0,0.3,0.3,0,0,0h-16.4c-0.3,0,0,0.3,0,0v-8.2
		c0-0.2-0.1-0.3-0.3-0.3h-17c-0.2,0-0.3,0.1-0.3,0.3v8.2c0,0.3,0.3,0,0,0h-16.4c-0.3,0,0,0.3,0,0v-8.2c0-0.2-0.1-0.3-0.3-0.3h-17
		c-0.2,0-0.3,0.1-0.3,0.3v8.2c0,0.3,0.3,0,0,0h-16.4c-0.3,0,0,0.3,0,0v-8.2c0-0.2-0.1-0.3-0.3-0.3h-17c-0.2,0-0.3,0.1-0.3,0.3v8.2
		c0,0.3,0.3,0,0,0h-16.4c-0.3,0,0,0.3,0,0v-8.2c0-0.2-0.1-0.3-0.3-0.3h-17c-0.2,0-0.3,0.1-0.3,0.3v8.2c0,0.3,0.3,0,0,0h-16.4
		c-0.3,0,0,0.3,0,0v-8.2c0-0.2-0.1-0.3-0.3-0.3h-17c-0.2,0-0.3,0.1-0.3,0.3v8.2c0,0.3,0.3,0,0,0H93c-0.3,0,0,0.3,0,0v-8.2
		c0-0.2-0.1-0.3-0.3-0.3h-17c-0.2,0-0.3,0.1-0.3,0.3v8.2c0,0.3,0.3,0,0,0H42.9c-0.2,0-0.3,0.1-0.3,0.3v27.6c0,0.3,0.3,0,0,0h-8.2
		c-0.2,0-0.3,0.1-0.3,0.3v17c0,0.2,0.1,0.3,0.3,0.3h8.2c0.3,0,0-0.3,0,0v16.4c0,0.3,0.3,0,0,0h-8.2c-0.2,0-0.3,0.1-0.3,0.3v17
		c0,0.2,0.1,0.3,0.3,0.3h8.2c0.3,0,0-0.3,0,0v16.4c0,0.3,0.3,0,0,0h-8.2c-0.2,0-0.3,0.1-0.3,0.3v17c0,0.2,0.1,0.3,0.3,0.3h8.2
		c0.3,0,0-0.3,0,0v16.4c0,0.3,0.3,0,0,0h-8.2c-0.2,0-0.3,0.1-0.3,0.3v17c0,0.2,0.1,0.3,0.3,0.3h8.2c0.3,0,0-0.3,0,0v16.4
		c0,0.3,0.3,0,0,0h-8.2c-0.2,0-0.3,0.1-0.3,0.3v17c0,0.2,0.1,0.3,0.3,0.3h8.2c0.3,0,0-0.3,0,0v16.4c0,0.3,0.3,0,0,0h-8.2
		c-0.2,0-0.3,0.1-0.3,0.3v17c0,0.2,0.1,0.3,0.3,0.3h8.2c0.3,0,0-0.3,0,0v16.4c0,0.3,0.3,0,0,0h-8.2c-0.2,0-0.3,0.1-0.3,0.3v17
		c0,0.2,0.1,0.3,0.3,0.3h8.2c0.3,0,0-0.3,0,0v16.4c0,0.3,0.3,0,0,0h-8.2c-0.2,0-0.3,0.1-0.3,0.3v17c0,0.2,0.1,0.3,0.3,0.3h8.2
		c0.3,0,0-0.3,0,0v16.4c0,0.3,0.3,0,0,0h-8.2c-0.2,0-0.3,0.1-0.3,0.3v17c0,0.2,0.1,0.3,0.3,0.3h8.2c0.3,0,0-0.3,0,0v16.4
		c0,0.3,0.3,0,0,0h-8.2c-0.2,0-0.3,0.1-0.3,0.3v17c0,0.2,0.1,0.3,0.3,0.3h8.2c0.3,0,0-0.3,0,0v27.6
		C42.6,428.8,42.7,428.9,42.9,428.9"/>
</g>
<g id="p-6">
	<path class="st4" d="M673.6,428.3h-8.2c-0.3,0,0,0.3,0,0v-7.9c0-0.3-0.3,0,0,0h16.4c0.3,0,0-0.3,0,0v7.9c0,0.3,0.3,0,0,0H673.6z"/>
	<path class="st4" d="M707.6,428.3h-8.2c-0.3,0,0,0.3,0,0v-7.9c0-0.3-0.3,0,0,0h16.4c0.3,0,0-0.3,0,0v7.9c0,0.3,0.3,0,0,0H707.6z"/>
	<path class="st4" d="M741.6,428.3h-8.2c-0.3,0,0,0.3,0,0v-7.9c0-0.3-0.3,0,0,0h16.4c0.3,0,0-0.3,0,0v7.9c0,0.3,0.3,0,0,0H741.6z"/>
	<path class="st4" d="M775.6,428.3h-8.2c-0.3,0,0,0.3,0,0v-7.9c0-0.3-0.3,0,0,0h16.4c0.3,0,0-0.3,0,0v7.9c0,0.3,0.3,0,0,0H775.6z"/>
	<path class="st4" d="M809.6,428.3h-8.2c-0.3,0,0,0.3,0,0v-7.9c0-0.3-0.3,0,0,0h16.4c0.3,0,0-0.3,0,0v7.9c0,0.3,0.3,0,0,0H809.6z"/>
	<path class="st4" d="M843.7,428.3h-8.2c-0.3,0,0,0.3,0,0v-7.9c0-0.3-0.3,0,0,0h16.4c0.3,0,0-0.3,0,0v7.9c0,0.3,0.3,0,0,0H843.7z"/>
	<path class="st4" d="M877.7,428.3h-8.2c-0.3,0,0,0.3,0,0v-7.9c0-0.3-0.3,0,0,0h16.4c0.3,0,0-0.3,0,0v7.9c0,0.3,0.3,0,0,0H877.7z"/>
	<path class="st4" d="M911.7,428.3h-8.2c-0.3,0,0,0.3,0,0v-7.9c0-0.3-0.3,0,0,0h16.4c0.3,0,0-0.3,0,0v7.9c0,0.3,0.3,0,0,0H911.7z"/>
	<path class="st4" d="M945.7,428.3h-8.2c-0.3,0,0,0.3,0,0v-7.9c0-0.3-0.3,0,0,0h16.4c0.3,0,0-0.3,0,0v7.9c0,0.3,0.3,0,0,0H945.7z"/>
	<path class="st4" d="M979.7,428.3h-8.2c-0.3,0,0,0.3,0,0v-7.9c0-0.3-0.3,0,0,0h16.4c0.3,0,0-0.3,0,0v7.9c0,0.3,0.3,0,0,0H979.7z"/>
	<path class="st4" d="M1013.7,428.3h-8.2c-0.3,0,0,0.3,0,0v-7.9c0-0.3-0.3,0,0,0h16.4c0.3,0,0-0.3,0,0v7.9c0,0.3,0.3,0,0,0H1013.7z"
		/>
	<path class="st4" d="M1047.7,428.3h-8.2c-0.3,0,0,0.3,0,0v-7.9c0-0.3-0.3,0,0,0h16.4c0.3,0,0-0.3,0,0v7.9c0,0.3,0.3,0,0,0H1047.7z"
		/>
	<path class="st4" d="M1081.8,428.3h-8.2c-0.3,0,0,0.3,0,0v-7.9c0-0.3-0.3,0,0,0h16.4c0.3,0,0-0.3,0,0v7.9c0,0.3,0.3,0,0,0H1081.8z"
		/>
	<path class="st4" d="M1115.8,428.3h-8.2c-0.3,0,0,0.3,0,0v-7.9c0-0.3-0.3,0,0,0h16.4c0.3,0,0-0.3,0,0v7.9c0,0.3,0.3,0,0,0H1115.8z"
		/>
	<path class="st4" d="M1149.8,428.3h-8.2c-0.3,0,0,0.3,0,0v-7.9c0-0.3-0.3,0,0,0h16.4c0.3,0,0-0.3,0,0v7.9c0,0.3,0.3,0,0,0H1149.8z"
		/>
	<text transform="matrix(1 0 0 1 898.7632 234.9411)" class="st0 st1 st2">Base</text>
	<path class="st3" d="M632.2,437.4h559h17c0.2,0,0.3-0.1,0.3-0.3v-17v-379v-17c0-0.2-0.1-0.3-0.3-0.3h-17h-559h-17
		c-0.2,0-0.3,0.1-0.3,0.3v17v379v17c0,0.2,0.1,0.3,0.3,0.3H632.2"/>
	<path class="st4" d="M1199.4,383.7v8.2c0,0.3,0.3,0,0,0h-7.9c-0.3,0,0,0.3,0,0v-16.4c0-0.3-0.3,0,0,0h7.9c0.3,0,0-0.3,0,0V383.7z"
		/>
	<path class="st4" d="M1199.4,349.7v8.2c0,0.3,0.3,0,0,0h-7.9c-0.3,0,0,0.3,0,0v-16.4c0-0.3-0.3,0,0,0h7.9c0.3,0,0-0.3,0,0V349.7z"
		/>
	<path class="st4" d="M1199.4,315.6v8.2c0,0.3,0.3,0,0,0h-7.9c-0.3,0,0,0.3,0,0v-16.4c0-0.3-0.3,0,0,0h7.9c0.3,0,0-0.3,0,0V315.6z"
		/>
	<path class="st4" d="M1199.4,281.6v8.2c0,0.3,0.3,0,0,0h-7.9c-0.3,0,0,0.3,0,0v-16.4c0-0.3-0.3,0,0,0h7.9c0.3,0,0-0.3,0,0V281.6z"
		/>
	<path class="st4" d="M1199.4,247.6v8.2c0,0.3,0.3,0,0,0h-7.9c-0.3,0,0,0.3,0,0v-16.4c0-0.3-0.3,0,0,0h7.9c0.3,0,0-0.3,0,0V247.6z"
		/>
	<path class="st4" d="M1199.4,213.6v8.2c0,0.3,0.3,0,0,0h-7.9c-0.3,0,0,0.3,0,0v-16.4c0-0.3-0.3,0,0,0h7.9c0.3,0,0-0.3,0,0V213.6z"
		/>
	<path class="st4" d="M1199.4,179.6v8.2c0,0.3,0.3,0,0,0h-7.9c-0.3,0,0,0.3,0,0v-16.4c0-0.3-0.3,0,0,0h7.9c0.3,0,0-0.3,0,0V179.6z"
		/>
	<path class="st4" d="M1199.4,145.6v8.2c0,0.3,0.3,0,0,0h-7.9c-0.3,0,0,0.3,0,0v-16.4c0-0.3-0.3,0,0,0h7.9c0.3,0,0-0.3,0,0V145.6z"
		/>
	<path class="st4" d="M1199.4,111.5v8.2c0,0.3,0.3,0,0,0h-7.9c-0.3,0,0,0.3,0,0v-16.4c0-0.3-0.3,0,0,0h7.9c0.3,0,0-0.3,0,0V111.5z"
		/>
	<path class="st4" d="M1199.4,77.5v8.2c0,0.3,0.3,0,0,0h-7.9c-0.3,0,0,0.3,0,0V69.3c0-0.3-0.3,0,0,0h7.9c0.3,0,0-0.3,0,0V77.5z"/>
	<path class="st4" d="M1149.8,32.9h8.2c0.3,0,0-0.3,0,0v7.9c0,0.3,0.3,0,0,0h-16.4c-0.3,0,0,0.3,0,0v-7.9c0-0.3-0.3,0,0,0H1149.8z"
		/>
	<path class="st4" d="M1115.8,32.9h8.2c0.3,0,0-0.3,0,0v7.9c0,0.3,0.3,0,0,0h-16.4c-0.3,0,0,0.3,0,0v-7.9c0-0.3-0.3,0,0,0H1115.8z"
		/>
	<path class="st4" d="M1081.8,32.9h8.2c0.3,0,0-0.3,0,0v7.9c0,0.3,0.3,0,0,0h-16.4c-0.3,0,0,0.3,0,0v-7.9c0-0.3-0.3,0,0,0H1081.8z"
		/>
	<path class="st4" d="M1047.7,32.9h8.2c0.3,0,0-0.3,0,0v7.9c0,0.3,0.3,0,0,0h-16.4c-0.3,0,0,0.3,0,0v-7.9c0-0.3-0.3,0,0,0H1047.7z"
		/>
	<path class="st4" d="M1013.7,32.9h8.2c0.3,0,0-0.3,0,0v7.9c0,0.3,0.3,0,0,0h-16.4c-0.3,0,0,0.3,0,0v-7.9c0-0.3-0.3,0,0,0H1013.7z"
		/>
	<path class="st4" d="M979.7,32.9h8.2c0.3,0,0-0.3,0,0v7.9c0,0.3,0.3,0,0,0h-16.4c-0.3,0,0,0.3,0,0v-7.9c0-0.3-0.3,0,0,0H979.7z"/>
	<path class="st4" d="M945.7,32.9h8.2c0.3,0,0-0.3,0,0v7.9c0,0.3,0.3,0,0,0h-16.4c-0.3,0,0,0.3,0,0v-7.9c0-0.3-0.3,0,0,0H945.7z"/>
	<path class="st4" d="M911.7,32.9h8.2c0.3,0,0-0.3,0,0v7.9c0,0.3,0.3,0,0,0h-16.4c-0.3,0,0,0.3,0,0v-7.9c0-0.3-0.3,0,0,0H911.7z"/>
	<path class="st4" d="M877.7,32.9h8.2c0.3,0,0-0.3,0,0v7.9c0,0.3,0.3,0,0,0h-16.4c-0.3,0,0,0.3,0,0v-7.9c0-0.3-0.3,0,0,0H877.7z"/>
	<path class="st4" d="M843.7,32.9h8.2c0.3,0,0-0.3,0,0v7.9c0,0.3,0.3,0,0,0h-16.4c-0.3,0,0,0.3,0,0v-7.9c0-0.3-0.3,0,0,0H843.7z"/>
	<path class="st4" d="M809.6,32.9h8.2c0.3,0,0-0.3,0,0v7.9c0,0.3,0.3,0,0,0h-16.4c-0.3,0,0,0.3,0,0v-7.9c0-0.3-0.3,0,0,0H809.6z"/>
	<path class="st4" d="M775.6,32.9h8.2c0.3,0,0-0.3,0,0v7.9c0,0.3,0.3,0,0,0h-16.4c-0.3,0,0,0.3,0,0v-7.9c0-0.3-0.3,0,0,0H775.6z"/>
	<path class="st4" d="M741.6,32.9h8.2c0.3,0,0-0.3,0,0v7.9c0,0.3,0.3,0,0,0h-16.4c-0.3,0,0,0.3,0,0v-7.9c0-0.3-0.3,0,0,0H741.6z"/>
	<path class="st4" d="M707.6,32.9h8.2c0.3,0,0-0.3,0,0v7.9c0,0.3,0.3,0,0,0h-16.4c-0.3,0,0,0.3,0,0v-7.9c0-0.3-0.3,0,0,0H707.6z"/>
	<path class="st4" d="M673.6,32.9h8.2c0.3,0,0-0.3,0,0v7.9c0,0.3,0.3,0,0,0h-16.4c-0.3,0,0,0.3,0,0v-7.9c0-0.3-0.3,0,0,0H673.6z"/>
	<path class="st4" d="M624,77.5v-8.2c0-0.3-0.3,0,0,0h7.9c0.3,0,0-0.3,0,0v16.4c0,0.3,0.3,0,0,0H624c-0.3,0,0,0.3,0,0V77.5z"/>
	<path class="st4" d="M624,111.5v-8.2c0-0.3-0.3,0,0,0h7.9c0.3,0,0-0.3,0,0v16.4c0,0.3,0.3,0,0,0H624c-0.3,0,0,0.3,0,0V111.5z"/>
	<path class="st4" d="M624,145.6v-8.2c0-0.3-0.3,0,0,0h7.9c0.3,0,0-0.3,0,0v16.4c0,0.3,0.3,0,0,0H624c-0.3,0,0,0.3,0,0V145.6z"/>
	<path class="st4" d="M624,179.6v-8.2c0-0.3-0.3,0,0,0h7.9c0.3,0,0-0.3,0,0v16.4c0,0.3,0.3,0,0,0H624c-0.3,0,0,0.3,0,0V179.6z"/>
	<path class="st4" d="M624,213.6v-8.2c0-0.3-0.3,0,0,0h7.9c0.3,0,0-0.3,0,0v16.4c0,0.3,0.3,0,0,0H624c-0.3,0,0,0.3,0,0V213.6z"/>
	<path class="st4" d="M624,247.6v-8.2c0-0.3-0.3,0,0,0h7.9c0.3,0,0-0.3,0,0v16.4c0,0.3,0.3,0,0,0H624c-0.3,0,0,0.3,0,0V247.6z"/>
	<path class="st4" d="M624,281.6v-8.2c0-0.3-0.3,0,0,0h7.9c0.3,0,0-0.3,0,0v16.4c0,0.3,0.3,0,0,0H624c-0.3,0,0,0.3,0,0V281.6z"/>
	<path class="st4" d="M624,315.6v-8.2c0-0.3-0.3,0,0,0h7.9c0.3,0,0-0.3,0,0v16.4c0,0.3,0.3,0,0,0H624c-0.3,0,0,0.3,0,0V315.6z"/>
	<path class="st4" d="M624,349.7v-8.2c0-0.3-0.3,0,0,0h7.9c0.3,0,0-0.3,0,0v16.4c0,0.3,0.3,0,0,0H624c-0.3,0,0,0.3,0,0V349.7z"/>
	<path class="st4" d="M624,383.7v-8.2c0-0.3-0.3,0,0,0h7.9c0.3,0,0-0.3,0,0v16.4c0,0.3,0.3,0,0,0H624c-0.3,0,0,0.3,0,0V383.7z"/>
</g>
<g>
	<polygon class="st5" points="1276.5,42 1276.5,70.4 1248.1,70.4 1248.1,113 1276.5,113 1276.5,98.9 1304.8,98.9 1304.8,113 
		1332.8,113 1332.8,70.5 1304.6,70.5 1304.6,42 1294.6,42 1294.6,70.4 1286.1,70.4 1286.1,42 	"/>
</g>
<g>
	<polygon class="st5" points="1390.7,42 1390.7,70.4 1362.2,70.4 1362.2,113 1390.7,113 1390.7,98.9 1418.9,98.9 1418.9,113 
		1446.9,113 1446.9,70.5 1418.7,70.5 1418.7,42 1408.8,42 1408.8,70.4 1400.3,70.4 1400.3,42 	"/>
</g>
<g>
	<polygon class="st5" points="1499.8,42 1499.8,70.4 1471.4,70.4 1471.4,113 1499.8,113 1499.8,98.9 1528.1,98.9 1528.1,113 
		1556.1,113 1556.1,70.5 1527.9,70.5 1527.9,42 1517.9,42 1517.9,70.4 1509.4,70.4 1509.4,42 	"/>
</g>
<g>
	<polygon class="st5" points="1609,42 1609,70.4 1580.5,70.4 1580.5,113 1609,113 1609,98.9 1637.2,98.9 1637.2,113 1665.2,113 
		1665.2,70.5 1637,70.5 1637,42 1627.1,42 1627.1,70.4 1618.6,70.4 1618.6,42 	"/>
</g>
<g>
	<path class="st5" d="M669.4,83.2v14c0,0.5,0.3,0,0,0h-8.2c-0.3,0,0,0.5,0,0V69.2c0-0.5-0.3,0,0,0h8.2c0.3,0,0-0.5,0,0V83.2z"/>
</g>
<g>
	<path class="st5" d="M669.4,139.9v14c0,0.5,0.3,0,0,0h-8.2c-0.3,0,0,0.5,0,0v-27.9c0-0.5-0.3,0,0,0h8.2c0.3,0,0-0.5,0,0V139.9z"/>
</g>
<g>
	<path class="st5" d="M1017.4,83.2v14c0,0.5,0.3,0,0,0h-8.2c-0.3,0,0,0.5,0,0V69.2c0-0.5-0.3,0,0,0h8.2c0.3,0,0-0.5,0,0V83.2z"/>
</g>
<g>
	<path class="st5" d="M1017.4,139.9v14c0,0.5,0.3,0,0,0h-8.2c-0.3,0,0,0.5,0,0v-27.9c0-0.5-0.3,0,0,0h8.2c0.3,0,0-0.5,0,0V139.9z"/>
</g>
<g>
	<path class="st5" d="M711.7,83.2v14c0,0.5,0.3,0,0,0h-8.2c-0.3,0,0,0.5,0,0V69.2c0-0.5-0.3,0,0,0h8.2c0.3,0,0-0.5,0,0V83.2z"/>
</g>
<g>
	<path class="st5" d="M711.7,139.9v14c0,0.5,0.3,0,0,0h-8.2c-0.3,0,0,0.5,0,0v-27.9c0-0.5-0.3,0,0,0h8.2c0.3,0,0-0.5,0,0V139.9z"/>
</g>
<g>
	<path class="st5" d="M771.4,83.2v14c0,0.5,0.3,0,0,0h-8.2c-0.3,0,0,0.5,0,0V69.2c0-0.5-0.3,0,0,0h8.2c0.3,0,0-0.5,0,0V83.2z"/>
</g>
<g>
	<path class="st5" d="M771.4,139.9v14c0,0.5,0.3,0,0,0h-8.2c-0.3,0,0,0.5,0,0v-27.9c0-0.5-0.3,0,0,0h8.2c0.3,0,0-0.5,0,0V139.9z"/>
</g>
<g>
	<path class="st5" d="M813.8,83.2v14c0,0.5,0.3,0,0,0h-8.2c-0.3,0,0,0.5,0,0V69.2c0-0.5-0.3,0,0,0h8.2c0.3,0,0-0.5,0,0V83.2z"/>
</g>
<g>
	<path class="st5" d="M813.8,139.9v14c0,0.5,0.3,0,0,0h-8.2c-0.3,0,0,0.5,0,0v-27.9c0-0.5-0.3,0,0,0h8.2c0.3,0,0-0.5,0,0V139.9z"/>
</g>
<g>
	<path class="st5" d="M856.1,83.2v14c0,0.5,0.3,0,0,0h-8.2c-0.3,0,0,0.5,0,0V69.2c0-0.5-0.3,0,0,0h8.2c0.3,0,0-0.5,0,0V83.2z"/>
</g>
<g>
	<path class="st5" d="M856.1,139.9v14c0,0.5,0.3,0,0,0h-8.2c-0.3,0,0,0.5,0,0v-27.9c0-0.5-0.3,0,0,0h8.2c0.3,0,0-0.5,0,0V139.9z"/>
</g>
<g>
	<path class="st5" d="M898.8,83.2v14c0,0.5,0.3,0,0,0h-8.2c-0.3,0,0,0.5,0,0V69.2c0-0.5-0.3,0,0,0h8.2c0.3,0,0-0.5,0,0V83.2z"/>
</g>
<g>
	<path class="st5" d="M898.8,139.9v14c0,0.5,0.3,0,0,0h-8.2c-0.3,0,0,0.5,0,0v-27.9c0-0.5-0.3,0,0,0h8.2c0.3,0,0-0.5,0,0V139.9z"/>
</g>
<g>
	<path class="st5" d="M941.5,83.2v14c0,0.5,0.3,0,0,0h-8.2c-0.3,0,0,0.5,0,0V69.2c0-0.5-0.3,0,0,0h8.2c0.3,0,0-0.5,0,0V83.2z"/>
</g>
<g>
	<path class="st5" d="M941.5,139.9v14c0,0.5,0.3,0,0,0h-8.2c-0.3,0,0,0.5,0,0v-27.9c0-0.5-0.3,0,0,0h8.2c0.3,0,0-0.5,0,0V139.9z"/>
</g>
<g>
	<path class="st5" d="M978.5,83.2v14c0,0.5,0.3,0,0,0h-8.2c-0.3,0,0,0.5,0,0V69.2c0-0.5-0.3,0,0,0h8.2c0.3,0,0-0.5,0,0V83.2z"/>
</g>
<g>
	<path class="st5" d="M978.5,139.9v14c0,0.5,0.3,0,0,0h-8.2c-0.3,0,0,0.5,0,0v-27.9c0-0.5-0.3,0,0,0h8.2c0.3,0,0-0.5,0,0V139.9z"/>
</g>
<g>
	<path class="st5" d="M1056.3,83.2v14c0,0.5,0.3,0,0,0h-8.2c-0.3,0,0,0.5,0,0V69.2c0-0.5-0.3,0,0,0h8.2c0.3,0,0-0.5,0,0V83.2z"/>
</g>
<g>
	<path class="st5" d="M1056.3,139.9v14c0,0.5,0.3,0,0,0h-8.2c-0.3,0,0,0.5,0,0v-27.9c0-0.5-0.3,0,0,0h8.2c0.3,0,0-0.5,0,0V139.9z"/>
</g>
<g>
	<path class="st5" d="M1094.2,83.2v14c0,0.5,0.3,0,0,0h-8.2c-0.3,0,0,0.5,0,0V69.2c0-0.5-0.3,0,0,0h8.2c0.3,0,0-0.5,0,0V83.2z"/>
</g>
<g>
	<path class="st5" d="M1094.2,139.9v14c0,0.5,0.3,0,0,0h-8.2c-0.3,0,0,0.5,0,0v-27.9c0-0.5-0.3,0,0,0h8.2c0.3,0,0-0.5,0,0V139.9z"/>
</g>
<g>
	<path class="st5" d="M1129.1,83.2v14c0,0.5,0.3,0,0,0h-8.2c-0.3,0,0,0.5,0,0V69.2c0-0.5-0.3,0,0,0h8.2c0.3,0,0-0.5,0,0V83.2z"/>
</g>
<g>
	<path class="st5" d="M1129.1,139.9v14c0,0.5,0.3,0,0,0h-8.2c-0.3,0,0,0.5,0,0v-27.9c0-0.5-0.3,0,0,0h8.2c0.3,0,0-0.5,0,0V139.9z"/>
</g>
<g>
	<path class="st5" d="M1167.9,83.2v14c0,0.5,0.3,0,0,0h-8.2c-0.3,0,0,0.5,0,0V69.2c0-0.5-0.3,0,0,0h8.2c0.3,0,0-0.5,0,0V83.2z"/>
</g>
<g>
	<path class="st5" d="M1167.9,139.9v14c0,0.5,0.3,0,0,0h-8.2c-0.3,0,0,0.5,0,0v-27.9c0-0.5-0.3,0,0,0h8.2c0.3,0,0-0.5,0,0V139.9z"/>
</g>
<g>
	<path class="st5" d="M741.6,83.2v14c0,0.5,0.3,0,0,0h-8.2c-0.3,0,0,0.5,0,0V69.2c0-0.5-0.3,0,0,0h8.2c0.3,0,0-0.5,0,0V83.2z"/>
</g>
<g>
	<path class="st5" d="M741.6,139.9v14c0,0.5,0.3,0,0,0h-8.2c-0.3,0,0,0.5,0,0v-27.9c0-0.5-0.3,0,0,0h8.2c0.3,0,0-0.5,0,0V139.9z"/>
</g>
<g>
	<path class="st5" d="M666.5,202.3v14c0,0.5,0.3,0,0,0h-8.2c-0.3,0,0,0.5,0,0v-27.9c0-0.5-0.3,0,0,0h8.2c0.3,0,0-0.5,0,0V202.3z"/>
</g>
<g>
	<path class="st5" d="M666.5,258.9v14c0,0.5,0.3,0,0,0h-8.2c-0.3,0,0,0.5,0,0V245c0-0.5-0.3,0,0,0h8.2c0.3,0,0-0.5,0,0V258.9z"/>
</g>
<g>
	<path class="st5" d="M1014.6,202.3v14c0,0.5,0.3,0,0,0h-8.2c-0.3,0,0,0.5,0,0v-27.9c0-0.5-0.3,0,0,0h8.2c0.3,0,0-0.5,0,0V202.3z"/>
</g>
<g>
	<path class="st5" d="M1014.6,258.9v14c0,0.5,0.3,0,0,0h-8.2c-0.3,0,0,0.5,0,0V245c0-0.5-0.3,0,0,0h8.2c0.3,0,0-0.5,0,0V258.9z"/>
</g>
<g>
	<path class="st5" d="M708.9,202.3v14c0,0.5,0.3,0,0,0h-8.2c-0.3,0,0,0.5,0,0v-27.9c0-0.5-0.3,0,0,0h8.2c0.3,0,0-0.5,0,0V202.3z"/>
</g>
<g>
	<path class="st5" d="M708.9,258.9v14c0,0.5,0.3,0,0,0h-8.2c-0.3,0,0,0.5,0,0V245c0-0.5-0.3,0,0,0h8.2c0.3,0,0-0.5,0,0V258.9z"/>
</g>
<g>
	<path class="st5" d="M768.6,202.3v14c0,0.5,0.3,0,0,0h-8.2c-0.3,0,0,0.5,0,0v-27.9c0-0.5-0.3,0,0,0h8.2c0.3,0,0-0.5,0,0V202.3z"/>
</g>
<g>
	<path class="st5" d="M768.6,258.9v14c0,0.5,0.3,0,0,0h-8.2c-0.3,0,0,0.5,0,0V245c0-0.5-0.3,0,0,0h8.2c0.3,0,0-0.5,0,0V258.9z"/>
</g>
<g>
	<path class="st5" d="M810.9,202.3v14c0,0.5,0.3,0,0,0h-8.2c-0.3,0,0,0.5,0,0v-27.9c0-0.5-0.3,0,0,0h8.2c0.3,0,0-0.5,0,0V202.3z"/>
</g>
<g>
	<path class="st5" d="M810.9,258.9v14c0,0.5,0.3,0,0,0h-8.2c-0.3,0,0,0.5,0,0V245c0-0.5-0.3,0,0,0h8.2c0.3,0,0-0.5,0,0V258.9z"/>
</g>
<g>
	<path class="st5" d="M853.3,202.3v14c0,0.5,0.3,0,0,0H845c-0.3,0,0,0.5,0,0v-27.9c0-0.5-0.3,0,0,0h8.2c0.3,0,0-0.5,0,0V202.3z"/>
</g>
<g>
	<path class="st5" d="M853.3,258.9v14c0,0.5,0.3,0,0,0H845c-0.3,0,0,0.5,0,0V245c0-0.5-0.3,0,0,0h8.2c0.3,0,0-0.5,0,0V258.9z"/>
</g>
<g>
	<path class="st5" d="M896,202.3v14c0,0.5,0.3,0,0,0h-8.2c-0.3,0,0,0.5,0,0v-27.9c0-0.5-0.3,0,0,0h8.2c0.3,0,0-0.5,0,0V202.3z"/>
</g>
<g>
	<path class="st5" d="M896,258.9v14c0,0.5,0.3,0,0,0h-8.2c-0.3,0,0,0.5,0,0V245c0-0.5-0.3,0,0,0h8.2c0.3,0,0-0.5,0,0V258.9z"/>
</g>
<g>
	<path class="st5" d="M938.6,202.3v14c0,0.5,0.3,0,0,0h-8.2c-0.3,0,0,0.5,0,0v-27.9c0-0.5-0.3,0,0,0h8.2c0.3,0,0-0.5,0,0V202.3z"/>
</g>
<g>
	<path class="st5" d="M938.6,258.9v14c0,0.5,0.3,0,0,0h-8.2c-0.3,0,0,0.5,0,0V245c0-0.5-0.3,0,0,0h8.2c0.3,0,0-0.5,0,0V258.9z"/>
</g>
<g>
	<path class="st5" d="M975.7,202.3v14c0,0.5,0.3,0,0,0h-8.2c-0.3,0,0,0.5,0,0v-27.9c0-0.5-0.3,0,0,0h8.2c0.3,0,0-0.5,0,0V202.3z"/>
</g>
<g>
	<path class="st5" d="M975.7,258.9v14c0,0.5,0.3,0,0,0h-8.2c-0.3,0,0,0.5,0,0V245c0-0.5-0.3,0,0,0h8.2c0.3,0,0-0.5,0,0V258.9z"/>
</g>
<g>
	<path class="st5" d="M1053.4,202.3v14c0,0.5,0.3,0,0,0h-8.2c-0.3,0,0,0.5,0,0v-27.9c0-0.5-0.3,0,0,0h8.2c0.3,0,0-0.5,0,0V202.3z"/>
</g>
<g>
	<path class="st5" d="M1053.4,258.9v14c0,0.5,0.3,0,0,0h-8.2c-0.3,0,0,0.5,0,0V245c0-0.5-0.3,0,0,0h8.2c0.3,0,0-0.5,0,0V258.9z"/>
</g>
<g>
	<path class="st5" d="M1091.4,202.3v14c0,0.5,0.3,0,0,0h-8.2c-0.3,0,0,0.5,0,0v-27.9c0-0.5-0.3,0,0,0h8.2c0.3,0,0-0.5,0,0V202.3z"/>
</g>
<g>
	<path class="st5" d="M1091.4,258.9v14c0,0.5,0.3,0,0,0h-8.2c-0.3,0,0,0.5,0,0V245c0-0.5-0.3,0,0,0h8.2c0.3,0,0-0.5,0,0V258.9z"/>
</g>
<g>
	<path class="st5" d="M1126.3,202.3v14c0,0.5,0.3,0,0,0h-8.2c-0.3,0,0,0.5,0,0v-27.9c0-0.5-0.3,0,0,0h8.2c0.3,0,0-0.5,0,0V202.3z"/>
</g>
<g>
	<path class="st5" d="M1126.3,258.9v14c0,0.5,0.3,0,0,0h-8.2c-0.3,0,0,0.5,0,0V245c0-0.5-0.3,0,0,0h8.2c0.3,0,0-0.5,0,0V258.9z"/>
</g>
<g>
	<path class="st5" d="M1165.1,202.3v14c0,0.5,0.3,0,0,0h-8.2c-0.3,0,0,0.5,0,0v-27.9c0-0.5-0.3,0,0,0h8.2c0.3,0,0-0.5,0,0V202.3z"/>
</g>
<g>
	<path class="st5" d="M1165.1,258.9v14c0,0.5,0.3,0,0,0h-8.2c-0.3,0,0,0.5,0,0V245c0-0.5-0.3,0,0,0h8.2c0.3,0,0-0.5,0,0V258.9z"/>
</g>
<g>
	<path class="st5" d="M738.7,202.3v14c0,0.5,0.3,0,0,0h-8.2c-0.3,0,0,0.5,0,0v-27.9c0-0.5-0.3,0,0,0h8.2c0.3,0,0-0.5,0,0V202.3z"/>
</g>
<g>
	<path class="st5" d="M738.7,258.9v14c0,0.5,0.3,0,0,0h-8.2c-0.3,0,0,0.5,0,0V245c0-0.5-0.3,0,0,0h8.2c0.3,0,0-0.5,0,0V258.9z"/>
</g>
<g>
	<path class="st5" d="M666.5,315.6v14c0,0.5,0.3,0,0,0h-8.2c-0.3,0,0,0.5,0,0v-27.9c0-0.5-0.3,0,0,0h8.2c0.3,0,0-0.5,0,0V315.6z"/>
</g>
<g>
	<path class="st5" d="M666.5,372.3v14c0,0.5,0.3,0,0,0h-8.2c-0.3,0,0,0.5,0,0v-27.9c0-0.5-0.3,0,0,0h8.2c0.3,0,0-0.5,0,0V372.3z"/>
</g>
<g>
	<path class="st5" d="M1014.6,315.6v14c0,0.5,0.3,0,0,0h-8.2c-0.3,0,0,0.5,0,0v-27.9c0-0.5-0.3,0,0,0h8.2c0.3,0,0-0.5,0,0V315.6z"/>
</g>
<g>
	<path class="st5" d="M1014.6,372.3v14c0,0.5,0.3,0,0,0h-8.2c-0.3,0,0,0.5,0,0v-27.9c0-0.5-0.3,0,0,0h8.2c0.3,0,0-0.5,0,0V372.3z"/>
</g>
<g>
	<path class="st5" d="M708.9,315.6v14c0,0.5,0.3,0,0,0h-8.2c-0.3,0,0,0.5,0,0v-27.9c0-0.5-0.3,0,0,0h8.2c0.3,0,0-0.5,0,0V315.6z"/>
</g>
<g>
	<path class="st5" d="M708.9,372.3v14c0,0.5,0.3,0,0,0h-8.2c-0.3,0,0,0.5,0,0v-27.9c0-0.5-0.3,0,0,0h8.2c0.3,0,0-0.5,0,0V372.3z"/>
</g>
<g>
	<path class="st5" d="M768.6,315.6v14c0,0.5,0.3,0,0,0h-8.2c-0.3,0,0,0.5,0,0v-27.9c0-0.5-0.3,0,0,0h8.2c0.3,0,0-0.5,0,0V315.6z"/>
</g>
<g>
	<path class="st5" d="M768.6,372.3v14c0,0.5,0.3,0,0,0h-8.2c-0.3,0,0,0.5,0,0v-27.9c0-0.5-0.3,0,0,0h8.2c0.3,0,0-0.5,0,0V372.3z"/>
</g>
<g>
	<path class="st5" d="M810.9,315.6v14c0,0.5,0.3,0,0,0h-8.2c-0.3,0,0,0.5,0,0v-27.9c0-0.5-0.3,0,0,0h8.2c0.3,0,0-0.5,0,0V315.6z"/>
</g>
<g>
	<path class="st5" d="M810.9,372.3v14c0,0.5,0.3,0,0,0h-8.2c-0.3,0,0,0.5,0,0v-27.9c0-0.5-0.3,0,0,0h8.2c0.3,0,0-0.5,0,0V372.3z"/>
</g>
<g>
	<path class="st5" d="M853.3,315.6v14c0,0.5,0.3,0,0,0H845c-0.3,0,0,0.5,0,0v-27.9c0-0.5-0.3,0,0,0h8.2c0.3,0,0-0.5,0,0V315.6z"/>
</g>
<g>
	<path class="st5" d="M853.3,372.3v14c0,0.5,0.3,0,0,0H845c-0.3,0,0,0.5,0,0v-27.9c0-0.5-0.3,0,0,0h8.2c0.3,0,0-0.5,0,0V372.3z"/>
</g>
<g>
	<path class="st5" d="M896,315.6v14c0,0.5,0.3,0,0,0h-8.2c-0.3,0,0,0.5,0,0v-27.9c0-0.5-0.3,0,0,0h8.2c0.3,0,0-0.5,0,0V315.6z"/>
</g>
<g>
	<path class="st5" d="M896,372.3v14c0,0.5,0.3,0,0,0h-8.2c-0.3,0,0,0.5,0,0v-27.9c0-0.5-0.3,0,0,0h8.2c0.3,0,0-0.5,0,0V372.3z"/>
</g>
<g>
	<path class="st5" d="M938.6,315.6v14c0,0.5,0.3,0,0,0h-8.2c-0.3,0,0,0.5,0,0v-27.9c0-0.5-0.3,0,0,0h8.2c0.3,0,0-0.5,0,0V315.6z"/>
</g>
<g>
	<path class="st5" d="M938.6,372.3v14c0,0.5,0.3,0,0,0h-8.2c-0.3,0,0,0.5,0,0v-27.9c0-0.5-0.3,0,0,0h8.2c0.3,0,0-0.5,0,0V372.3z"/>
</g>
<g>
	<path class="st5" d="M975.7,315.6v14c0,0.5,0.3,0,0,0h-8.2c-0.3,0,0,0.5,0,0v-27.9c0-0.5-0.3,0,0,0h8.2c0.3,0,0-0.5,0,0V315.6z"/>
</g>
<g>
	<path class="st5" d="M975.7,372.3v14c0,0.5,0.3,0,0,0h-8.2c-0.3,0,0,0.5,0,0v-27.9c0-0.5-0.3,0,0,0h8.2c0.3,0,0-0.5,0,0V372.3z"/>
</g>
<g>
	<path class="st5" d="M1053.4,315.6v14c0,0.5,0.3,0,0,0h-8.2c-0.3,0,0,0.5,0,0v-27.9c0-0.5-0.3,0,0,0h8.2c0.3,0,0-0.5,0,0V315.6z"/>
</g>
<g>
	<path class="st5" d="M1053.4,372.3v14c0,0.5,0.3,0,0,0h-8.2c-0.3,0,0,0.5,0,0v-27.9c0-0.5-0.3,0,0,0h8.2c0.3,0,0-0.5,0,0V372.3z"/>
</g>
<g>
	<path class="st5" d="M1091.4,315.6v14c0,0.5,0.3,0,0,0h-8.2c-0.3,0,0,0.5,0,0v-27.9c0-0.5-0.3,0,0,0h8.2c0.3,0,0-0.5,0,0V315.6z"/>
</g>
<g>
	<path class="st5" d="M1091.4,372.3v14c0,0.5,0.3,0,0,0h-8.2c-0.3,0,0,0.5,0,0v-27.9c0-0.5-0.3,0,0,0h8.2c0.3,0,0-0.5,0,0V372.3z"/>
</g>
<g>
	<path class="st5" d="M1126.3,315.6v14c0,0.5,0.3,0,0,0h-8.2c-0.3,0,0,0.5,0,0v-27.9c0-0.5-0.3,0,0,0h8.2c0.3,0,0-0.5,0,0V315.6z"/>
</g>
<g>
	<path class="st5" d="M1126.3,372.3v14c0,0.5,0.3,0,0,0h-8.2c-0.3,0,0,0.5,0,0v-27.9c0-0.5-0.3,0,0,0h8.2c0.3,0,0-0.5,0,0V372.3z"/>
</g>
<g>
	<path class="st5" d="M1165.1,315.6v14c0,0.5,0.3,0,0,0h-8.2c-0.3,0,0,0.5,0,0v-27.9c0-0.5-0.3,0,0,0h8.2c0.3,0,0-0.5,0,0V315.6z"/>
</g>
<g>
	<path class="st5" d="M1165.1,372.3v14c0,0.5,0.3,0,0,0h-8.2c-0.3,0,0,0.5,0,0v-27.9c0-0.5-0.3,0,0,0h8.2c0.3,0,0-0.5,0,0V372.3z"/>
</g>
<g>
	<path class="st5" d="M738.7,315.6v14c0,0.5,0.3,0,0,0h-8.2c-0.3,0,0,0.5,0,0v-27.9c0-0.5-0.3,0,0,0h8.2c0.3,0,0-0.5,0,0V315.6z"/>
</g>
<g>
	<path class="st5" d="M738.7,372.3v14c0,0.5,0.3,0,0,0h-8.2c-0.3,0,0,0.5,0,0v-27.9c0-0.5-0.3,0,0,0h8.2c0.3,0,0-0.5,0,0V372.3z"/>
</g>
<g>
	<polygon class="st5" points="1280.7,154.5 1280.7,182.9 1252.2,182.9 1252.2,225.5 1280.7,225.5 1280.7,211.4 1308.9,211.4 
		1308.9,225.5 1336.9,225.5 1336.9,183 1308.7,183 1308.7,154.5 1298.8,154.5 1298.8,182.9 1290.3,182.9 1290.3,154.5 	"/>
</g>
<g>
	<polygon class="st5" points="1394.8,154.5 1394.8,182.9 1366.4,182.9 1366.4,225.5 1394.8,225.5 1394.8,211.4 1423.1,211.4 
		1423.1,225.5 1451.1,225.5 1451.1,183 1422.8,183 1422.8,154.5 1412.9,154.5 1412.9,182.9 1404.4,182.9 1404.4,154.5 	"/>
</g>
<g>
	<polygon class="st5" points="1504,154.5 1504,182.9 1475.5,182.9 1475.5,225.5 1504,225.5 1504,211.4 1532.2,211.4 1532.2,225.5 
		1560.2,225.5 1560.2,183 1532,183 1532,154.5 1522.1,154.5 1522.1,182.9 1513.6,182.9 1513.6,154.5 	"/>
</g>
<g>
	<polygon class="st5" points="1613.1,154.5 1613.1,182.9 1584.7,182.9 1584.7,225.5 1613.1,225.5 1613.1,211.4 1641.4,211.4 
		1641.4,225.5 1669.4,225.5 1669.4,183 1641.1,183 1641.1,154.5 1631.2,154.5 1631.2,182.9 1622.7,182.9 1622.7,154.5 	"/>
</g>
<g>
	<polygon class="st5" points="1280.7,254.5 1280.7,282.9 1252.2,282.9 1252.2,325.5 1280.7,325.5 1280.7,311.4 1308.9,311.4 
		1308.9,325.5 1336.9,325.5 1336.9,283 1308.7,283 1308.7,254.5 1298.8,254.5 1298.8,282.9 1290.3,282.9 1290.3,254.5 	"/>
</g>
<g>
	<polygon class="st5" points="1394.8,254.5 1394.8,282.9 1366.4,282.9 1366.4,325.5 1394.8,325.5 1394.8,311.4 1423.1,311.4 
		1423.1,325.5 1451.1,325.5 1451.1,283 1422.8,283 1422.8,254.5 1412.9,254.5 1412.9,282.9 1404.4,282.9 1404.4,254.5 	"/>
</g>
<g>
	<polygon class="st5" points="1504,254.5 1504,282.9 1475.5,282.9 1475.5,325.5 1504,325.5 1504,311.4 1532.2,311.4 1532.2,325.5 
		1560.2,325.5 1560.2,283 1532,283 1532,254.5 1522.1,254.5 1522.1,282.9 1513.6,282.9 1513.6,254.5 	"/>
</g>
<g>
	<polygon class="st5" points="1613.1,254.5 1613.1,282.9 1584.7,282.9 1584.7,325.5 1613.1,325.5 1613.1,311.4 1641.4,311.4 
		1641.4,325.5 1669.4,325.5 1669.4,283 1641.1,283 1641.1,254.5 1631.2,254.5 1631.2,282.9 1622.7,282.9 1622.7,254.5 	"/>
</g>
<g>
	<polygon class="st5" points="1286.9,356.5 1286.9,384.9 1258.4,384.9 1258.4,427.5 1286.9,427.5 1286.9,413.4 1315.1,413.4 
		1315.1,427.5 1343.1,427.5 1343.1,385 1314.9,385 1314.9,356.5 1305,356.5 1305,384.9 1296.5,384.9 1296.5,356.5 	"/>
</g>
<g>
	<polygon class="st5" points="1401,356.5 1401,384.9 1372.6,384.9 1372.6,427.5 1401,427.5 1401,413.4 1429.3,413.4 1429.3,427.5 
		1457.3,427.5 1457.3,385 1429,385 1429,356.5 1419.1,356.5 1419.1,384.9 1410.6,384.9 1410.6,356.5 	"/>
</g>
<g>
	<polygon class="st5" points="1510.2,356.5 1510.2,384.9 1481.7,384.9 1481.7,427.5 1510.2,427.5 1510.2,413.4 1538.4,413.4 
		1538.4,427.5 1566.4,427.5 1566.4,385 1538.2,385 1538.2,356.5 1528.3,356.5 1528.3,384.9 1519.8,384.9 1519.8,356.5 	"/>
</g>
<g>
	<polygon class="st5" points="1619.3,356.5 1619.3,384.9 1590.9,384.9 1590.9,427.5 1619.3,427.5 1619.3,413.4 1647.6,413.4 
		1647.6,427.5 1675.6,427.5 1675.6,385 1647.3,385 1647.3,356.5 1637.4,356.5 1637.4,384.9 1628.9,384.9 1628.9,356.5 	"/>
</g>
</svg>
