<?xml version="1.0" encoding="utf-8"?>
<!-- Generator: Adobe Illustrator 24.0.1, SVG Export Plug-In . SVG Version: 6.00 Build 0)  -->
<svg version="1.1" id="Layer_1" xmlns="http://www.w3.org/2000/svg" xmlns:xlink="http://www.w3.org/1999/xlink" x="0px" y="0px"
	 viewBox="0 0 1728 1296" style="enable-background:new 0 0 1728 1296;" xml:space="preserve">
<style type="text/css">
	.st0{fill:none;stroke:#000000;stroke-width:1.000000e-03;stroke-linecap:round;stroke-linejoin:round;stroke-miterlimit:11.3386;}
	.st1{fill:none;stroke:#0000FF;stroke-width:1.000000e-03;stroke-linecap:round;stroke-linejoin:round;stroke-miterlimit:11.3386;}
</style>
<g id="p-6">
	<path class="st0" d="M31.4,224.2h271h17c0.2,0,0.3-0.1,0.3-0.3v-17v-181v-17c0-0.2-0.1-0.3-0.3-0.3h-17h-271h-17
		c-0.2,0-0.3,0.1-0.3,0.3v17v181v17c0,0.2,0.1,0.3,0.3,0.3H31.4"/>
</g>
<g>
	<path class="st1" d="M77.3,45.4v14c0,0.5,0.3,0,0,0h-8.2c-0.3,0,0,0.5,0,0v-28c0-0.5-0.3,0,0,0h8.2c0.3,0,0-0.5,0,0V45.4z"/>
</g>
<g>
	<path class="st1" d="M77.3,102.1v14c0,0.5,0.3,0,0,0h-8.2c-0.3,0,0,0.5,0,0V88.2c0-0.5-0.3,0,0,0h8.2c0.3,0,0-0.5,0,0V102.1z"/>
</g>
<g>
	<path class="st1" d="M128.6,130.7v14c0,0.5,0.3,0,0,0h-8.2c-0.3,0,0,0.5,0,0v-27.9c0-0.5-0.3,0,0,0h8.2c0.3,0,0-0.5,0,0V130.7z"/>
</g>
<g>
	<path class="st1" d="M128.6,187.4v14c0,0.5,0.3,0,0,0h-8.2c-0.3,0,0,0.5,0,0v-27.9c0-0.5-0.3,0,0,0h8.2c0.3,0,0-0.5,0,0V187.4z"/>
</g>
<g>
	<path class="st1" d="M213.3,130.7v14c0,0.5,0.3,0,0,0h-8.2c-0.3,0,0,0.5,0,0v-27.9c0-0.5-0.3,0,0,0h8.2c0.3,0,0-0.5,0,0V130.7z"/>
</g>
<g>
	<path class="st1" d="M213.3,187.4v14c0,0.5,0.3,0,0,0h-8.2c-0.3,0,0,0.5,0,0v-27.9c0-0.5-0.3,0,0,0h8.2c0.3,0,0-0.5,0,0V187.4z"/>
</g>
<g>
	<path class="st1" d="M264.7,45.4v14c0,0.5,0.3,0,0,0h-8.2c-0.3,0,0,0.5,0,0v-28c0-0.5-0.3,0,0,0h8.2c0.3,0,0-0.5,0,0V45.4z"/>
</g>
<g>
	<path class="st1" d="M264.7,102.1v14c0,0.5,0.3,0,0,0h-8.2c-0.3,0,0,0.5,0,0V88.2c0-0.5-0.3,0,0,0h8.2c0.3,0,0-0.5,0,0V102.1z"/>
</g>
<g>
	<path class="st1" d="M183.6,45.4v14c0,0.5,0.3,0,0,0h-8.2c-0.3,0,0,0.5,0,0v-28c0-0.5-0.3,0,0,0h8.2c0.3,0,0-0.5,0,0V45.4z"/>
</g>
<g>
	<path class="st1" d="M183.6,102.1v14c0,0.5,0.3,0,0,0h-8.2c-0.3,0,0,0.5,0,0V88.2c0-0.5-0.3,0,0,0h8.2c0.3,0,0-0.5,0,0V102.1z"/>
</g>
<g>
	<path class="st1" d="M156.1,45.4v14c0,0.5,0.3,0,0,0h-8.2c-0.3,0,0,0.5,0,0v-28c0-0.5-0.3,0,0,0h8.2c0.3,0,0-0.5,0,0V45.4z"/>
</g>
<g>
	<path class="st1" d="M156.1,102.1v14c0,0.5,0.3,0,0,0h-8.2c-0.3,0,0,0.5,0,0V88.2c0-0.5-0.3,0,0,0h8.2c0.3,0,0-0.5,0,0V102.1z"/>
</g>
<g>
	<path class="st1" d="M171,130.7v14c0,0.5,0.3,0,0,0h-8.3c-0.3,0,0,0.5,0,0v-27.9c0-0.5-0.3,0,0,0h8.2c0.3,0,0-0.5,0,0L171,130.7
		L171,130.7z"/>
</g>
<g>
	<path class="st1" d="M171,187.4v14c0,0.5,0.3,0,0,0h-8.3c-0.3,0,0,0.5,0,0v-27.9c0-0.5-0.3,0,0,0h8.2c0.3,0,0-0.5,0,0L171,187.4
		L171,187.4z"/>
</g>
<g>
	<path class="st1" d="M281.4,130.7v14c0,0.5,0.3,0,0,0h-8.2c-0.3,0,0,0.5,0,0v-27.9c0-0.5-0.3,0,0,0h8.2c0.3,0,0-0.5,0,0V130.7z"/>
</g>
<g>
	<path class="st1" d="M281.4,187.4v14c0,0.5,0.3,0,0,0h-8.2c-0.3,0,0,0.5,0,0v-27.9c0-0.5-0.3,0,0,0h8.2c0.3,0,0-0.5,0,0V187.4z"/>
</g>
<g>
	<path class="st1" d="M247.3,130.7v14c0,0.5,0.3,0,0,0h-8.2c-0.3,0,0,0.5,0,0v-27.9c0-0.5-0.3,0,0,0h8.2c0.3,0,0-0.5,0,0V130.7z"/>
</g>
<g>
	<path class="st1" d="M247.3,187.4v14c0,0.5,0.3,0,0,0h-8.2c-0.3,0,0,0.5,0,0v-27.9c0-0.5-0.3,0,0,0h8.2c0.3,0,0-0.5,0,0V187.4z"/>
</g>
<g>
	<path class="st1" d="M111.5,45.4v14c0,0.5,0.3,0,0,0h-8.2c-0.3,0,0,0.5,0,0v-28c0-0.5-0.3,0,0,0h8.2c0.3,0,0-0.5,0,0V45.4z"/>
</g>
<g>
	<path class="st1" d="M111.5,102.1v14c0,0.5,0.3,0,0,0h-8.2c-0.3,0,0,0.5,0,0V88.2c0-0.5-0.3,0,0,0h8.2c0.3,0,0-0.5,0,0V102.1z"/>
</g>
<g>
	<path class="st1" d="M60.6,130.7v14c0,0.5,0.3,0,0,0h-8.2c-0.3,0,0,0.5,0,0v-27.9c0-0.5-0.3,0,0,0h8.2c0.3,0,0-0.5,0,0V130.7z"/>
</g>
<g>
	<path class="st1" d="M60.6,187.4v14c0,0.5,0.3,0,0,0h-8.2c-0.3,0,0,0.5,0,0v-27.9c0-0.5-0.3,0,0,0h8.2c0.3,0,0-0.5,0,0V187.4z"/>
</g>
<g>
	<path class="st1" d="M94.6,130.7v14c0,0.5,0.3,0,0,0h-8.2c-0.3,0,0,0.5,0,0v-27.9c0-0.5-0.3,0,0,0h8.2c0.3,0,0-0.5,0,0V130.7z"/>
</g>
<g>
	<path class="st1" d="M94.6,187.4v14c0,0.5,0.3,0,0,0h-8.2c-0.3,0,0,0.5,0,0v-27.9c0-0.5-0.3,0,0,0h8.2c0.3,0,0-0.5,0,0V187.4z"/>
</g>
<g>
	<path class="st1" d="M230.7,45.4v14c0,0.5,0.3,0,0,0h-8.2c-0.3,0,0,0.5,0,0v-28c0-0.5-0.3,0,0,0h8.2c0.3,0,0-0.5,0,0V45.4z"/>
</g>
<g>
	<path class="st1" d="M230.7,102.1v14c0,0.5,0.3,0,0,0h-8.2c-0.3,0,0,0.5,0,0V88.2c0-0.5-0.3,0,0,0h8.2c0.3,0,0-0.5,0,0V102.1z"/>
</g>
<polygon class="st1" points="358,13.6 358,42 329.5,42 329.5,84.6 358.6,84.6 358.6,70.5 385.8,70.5 385.8,84.6 414.3,84.6 
	414.3,42.1 386,42.1 386,13.6 375.6,13.6 375.6,42 368.2,42 368.2,13.6 "/>
</svg>
