<?xml version="1.0" encoding="utf-8"?>
<!-- Generator: Adobe Illustrator 25.2.1, SVG Export Plug-In . SVG Version: 6.00 Build 0)  -->
<svg version="1.1" id="Layer_1" xmlns="http://www.w3.org/2000/svg" xmlns:xlink="http://www.w3.org/1999/xlink" x="0px" y="0px"
	 viewBox="0 0 1728 1296" style="enable-background:new 0 0 1728 1296;" xml:space="preserve">
<style type="text/css">
	.st0{fill:none;stroke:#000000;stroke-width:7.200000e-02;stroke-linecap:round;stroke-linejoin:round;stroke-miterlimit:11.3386;}
	.st1{fill:#FF0000;}
	.st2{font-family:'ArialMT';}
	.st3{font-size:22.6772px;}
	.st4{font-size:11.3386px;}
	.st5{fill:none;stroke:#0000FF;stroke-width:7.200000e-02;stroke-linecap:round;stroke-linejoin:round;stroke-miterlimit:11.3386;}
</style>
<g id="p-0">
	<path class="st0" d="M35.8,677.2h283.5v-28.3H35.8V677.2z"/>
	<text transform="matrix(1 0 0 1 66.6472 671.1373)" class="st1 st2 st3">100mm, burn:0.10mm</text>
</g>
<g id="p-1">
	<text transform="matrix(1 0 0 1 164.2849 549.0846)" class="st1 st2 st4">Wall 1</text>
	<path class="st0" d="M44.3,635.5H69c0.3,0,0-0.3,0,0v8.2c0,0.2,0.1,0.3,0.3,0.3h17c0.2,0,0.3-0.1,0.3-0.3v-8.2c0-0.3-0.3,0,0,0H103
		c0.3,0,0-0.3,0,0v8.2c0,0.2,0.1,0.3,0.3,0.3h17c0.2,0,0.3-0.1,0.3-0.3v-8.2c0-0.3-0.3,0,0,0H137c0.3,0,0-0.3,0,0v8.2
		c0,0.2,0.1,0.3,0.3,0.3h17c0.2,0,0.3-0.1,0.3-0.3v-8.2c0-0.3-0.3,0,0,0H171c0.3,0,0-0.3,0,0v8.2c0,0.2,0.1,0.3,0.3,0.3h17
		c0.2,0,0.3-0.1,0.3-0.3v-8.2c0-0.3-0.3,0,0,0h16.4c0.3,0,0-0.3,0,0v8.2c0,0.2,0.1,0.3,0.3,0.3h17c0.2,0,0.3-0.1,0.3-0.3v-8.2
		c0-0.3-0.3,0,0,0h16.4c0.3,0,0-0.3,0,0v8.2c0,0.2,0.1,0.3,0.3,0.3h17c0.2,0,0.3-0.1,0.3-0.3v-8.2c0-0.3-0.3,0,0,0h16.4
		c0.3,0,0-0.3,0,0v8.2c0,0.2,0.1,0.3,0.3,0.3h17c0.2,0,0.3-0.1,0.3-0.3v-8.2c0-0.3-0.3,0,0,0h24.7h8.5c0.2,0,0.3-0.1,0.3-0.3v-31
		c0-0.2-0.1-0.3-0.3-0.3h-8.2c-0.3,0,0,0.3,0,0v-16.4c0-0.3-0.3,0,0,0h8.2c0.2,0,0.3-0.1,0.3-0.3v-17c0-0.2-0.1-0.3-0.3-0.3h-8.2
		c-0.3,0,0,0.3,0,0v-16.4c0-0.3-0.3,0,0,0h8.2c0.2,0,0.3-0.1,0.3-0.3v-17c0-0.2-0.1-0.3-0.3-0.3h-8.2c-0.3,0,0,0.3,0,0v-16.4
		c0-0.3-0.3,0,0,0h8.2c0.2,0,0.3-0.1,0.3-0.3v-17c0-0.2-0.1-0.3-0.3-0.3h-8.2c-0.3,0,0,0.3,0,0v-16.4c0-0.3-0.3,0,0,0h8.2
		c0.2,0,0.3-0.1,0.3-0.3v-31v-8.5c0-0.2-0.1-0.3-0.3-0.3h-8.5h-24.9c-0.2,0-0.3,0.1-0.3,0.3v8.2c0,0.3,0.3,0,0,0h-16.4
		c-0.3,0,0,0.3,0,0v-8.2c0-0.2-0.1-0.3-0.3-0.3h-17c-0.2,0-0.3,0.1-0.3,0.3v8.2c0,0.3,0.3,0,0,0h-16.4c-0.3,0,0,0.3,0,0v-8.2
		c0-0.2-0.1-0.3-0.3-0.3h-17c-0.2,0-0.3,0.1-0.3,0.3v8.2c0,0.3,0.3,0,0,0h-16.4c-0.3,0,0,0.3,0,0v-8.2c0-0.2-0.1-0.3-0.3-0.3h-17
		c-0.2,0-0.3,0.1-0.3,0.3v8.2c0,0.3,0.3,0,0,0h-16.4c-0.3,0,0,0.3,0,0v-8.2c0-0.2-0.1-0.3-0.3-0.3h-17c-0.2,0-0.3,0.1-0.3,0.3v8.2
		c0,0.3,0.3,0,0,0h-16.4c-0.3,0,0,0.3,0,0v-8.2c0-0.2-0.1-0.3-0.3-0.3h-17c-0.2,0-0.3,0.1-0.3,0.3v8.2c0,0.3,0.3,0,0,0h-16.4
		c-0.3,0,0,0.3,0,0v-8.2c0-0.2-0.1-0.3-0.3-0.3h-17c-0.2,0-0.3,0.1-0.3,0.3v8.2c0,0.3,0.3,0,0,0H69.6c-0.3,0,0,0.3,0,0v-8.2
		c0-0.2-0.1-0.3-0.3-0.3H44.3h-8.5c-0.2,0-0.3,0.1-0.3,0.3v8.5v31c0,0.2,0.1,0.3,0.3,0.3H44c0.3,0,0-0.3,0,0v16.4c0,0.3,0.3,0,0,0
		h-8.2c-0.2,0-0.3,0.1-0.3,0.3v17c0,0.2,0.1,0.3,0.3,0.3H44c0.3,0,0-0.3,0,0V536c0,0.3,0.3,0,0,0h-8.2c-0.2,0-0.3,0.1-0.3,0.3v17
		c0,0.2,0.1,0.3,0.3,0.3H44c0.3,0,0-0.3,0,0V570c0,0.3,0.3,0,0,0h-8.2c-0.2,0-0.3,0.1-0.3,0.3v17c0,0.2,0.1,0.3,0.3,0.3H44
		c0.3,0,0-0.3,0,0V604c0,0.3,0.3,0,0,0h-8.2c-0.2,0-0.3,0.1-0.3,0.3v31c0,0.2,0.1,0.3,0.3,0.3H44.3"/>
</g>
<g id="p-2">
	<text transform="matrix(1 0 0 1 412.1042 549.0846)" class="st1 st2 st4">Wall 2</text>
	<path class="st0" d="M337.1,635.5h30.7c0.3,0,0-0.3,0,0v8.2c0,0.2,0.1,0.3,0.3,0.3h17c0.2,0,0.3-0.1,0.3-0.3v-8.2c0-0.3-0.3,0,0,0
		h16.4c0.3,0,0-0.3,0,0v8.2c0,0.2,0.1,0.3,0.3,0.3h17c0.2,0,0.3-0.1,0.3-0.3v-8.2c0-0.3-0.3,0,0,0h16.4c0.3,0,0-0.3,0,0v8.2
		c0,0.2,0.1,0.3,0.3,0.3h17c0.2,0,0.3-0.1,0.3-0.3v-8.2c0-0.3-0.3,0,0,0h16.4c0.3,0,0-0.3,0,0v8.2c0,0.2,0.1,0.3,0.3,0.3h17
		c0.2,0,0.3-0.1,0.3-0.3v-8.2c0-0.3-0.3,0,0,0h30.7c0.2,0,0.3-0.1,0.3-0.3v-30.7c0-0.3-0.3,0,0,0h8.2c0.2,0,0.3-0.1,0.3-0.3v-17
		c0-0.2-0.1-0.3-0.3-0.3h-8.2c-0.3,0,0,0.3,0,0v-16.4c0-0.3-0.3,0,0,0h8.2c0.2,0,0.3-0.1,0.3-0.3v-17c0-0.2-0.1-0.3-0.3-0.3h-8.2
		c-0.3,0,0,0.3,0,0v-16.4c0-0.3-0.3,0,0,0h8.2c0.2,0,0.3-0.1,0.3-0.3v-17c0-0.2-0.1-0.3-0.3-0.3h-8.2c-0.3,0,0,0.3,0,0v-16.4
		c0-0.3-0.3,0,0,0h8.2c0.2,0,0.3-0.1,0.3-0.3v-17c0-0.2-0.1-0.3-0.3-0.3h-8.2c-0.3,0,0,0.3,0,0v-30.7v-8.5c0-0.2-0.1-0.3-0.3-0.3
		h-31c-0.2,0-0.3,0.1-0.3,0.3v8.2c0,0.3,0.3,0,0,0h-16.4c-0.3,0,0,0.3,0,0v-8.2c0-0.2-0.1-0.3-0.3-0.3h-17c-0.2,0-0.3,0.1-0.3,0.3
		v8.2c0,0.3,0.3,0,0,0h-16.4c-0.3,0,0,0.3,0,0v-8.2c0-0.2-0.1-0.3-0.3-0.3h-17c-0.2,0-0.3,0.1-0.3,0.3v8.2c0,0.3,0.3,0,0,0h-16.4
		c-0.3,0,0,0.3,0,0v-8.2c0-0.2-0.1-0.3-0.3-0.3h-17c-0.2,0-0.3,0.1-0.3,0.3v8.2c0,0.3,0.3,0,0,0h-16.4c-0.3,0,0,0.3,0,0v-8.2
		c0-0.2-0.1-0.3-0.3-0.3h-31c-0.2,0-0.3,0.1-0.3,0.3v8.5v30.7c0,0.3,0.3,0,0,0h-8.2c-0.2,0-0.3,0.1-0.3,0.3v17
		c0,0.2,0.1,0.3,0.3,0.3h8.2c0.3,0,0-0.3,0,0v16.4c0,0.3,0.3,0,0,0h-8.2c-0.2,0-0.3,0.1-0.3,0.3v17c0,0.2,0.1,0.3,0.3,0.3h8.2
		c0.3,0,0-0.3,0,0V553c0,0.3,0.3,0,0,0h-8.2c-0.2,0-0.3,0.1-0.3,0.3v17c0,0.2,0.1,0.3,0.3,0.3h8.2c0.3,0,0-0.3,0,0V587
		c0,0.3,0.3,0,0,0h-8.2c-0.2,0-0.3,0.1-0.3,0.3v17c0,0.2,0.1,0.3,0.3,0.3h8.2c0.3,0,0-0.3,0,0v30.7
		C336.9,635.4,337,635.5,337.1,635.5"/>
</g>
<g id="p-3">
	<text transform="matrix(1 0 0 1 412.1042 346.2662)" class="st1 st2 st4">Wall 4</text>
	<path class="st0" d="M337.1,432.7h30.7c0.3,0,0-0.3,0,0v8.2c0,0.2,0.1,0.3,0.3,0.3h17c0.2,0,0.3-0.1,0.3-0.3v-8.2c0-0.3-0.3,0,0,0
		h16.4c0.3,0,0-0.3,0,0v8.2c0,0.2,0.1,0.3,0.3,0.3h17c0.2,0,0.3-0.1,0.3-0.3v-8.2c0-0.3-0.3,0,0,0h16.4c0.3,0,0-0.3,0,0v8.2
		c0,0.2,0.1,0.3,0.3,0.3h17c0.2,0,0.3-0.1,0.3-0.3v-8.2c0-0.3-0.3,0,0,0h16.4c0.3,0,0-0.3,0,0v8.2c0,0.2,0.1,0.3,0.3,0.3h17
		c0.2,0,0.3-0.1,0.3-0.3v-8.2c0-0.3-0.3,0,0,0h30.7c0.2,0,0.3-0.1,0.3-0.3v-30.7c0-0.3-0.3,0,0,0h8.2c0.2,0,0.3-0.1,0.3-0.3v-17
		c0-0.2-0.1-0.3-0.3-0.3h-8.2c-0.3,0,0,0.3,0,0v-16.4c0-0.3-0.3,0,0,0h8.2c0.2,0,0.3-0.1,0.3-0.3v-17c0-0.2-0.1-0.3-0.3-0.3h-8.2
		c-0.3,0,0,0.3,0,0v-16.4c0-0.3-0.3,0,0,0h8.2c0.2,0,0.3-0.1,0.3-0.3v-17c0-0.2-0.1-0.3-0.3-0.3h-8.2c-0.3,0,0,0.3,0,0v-16.4
		c0-0.3-0.3,0,0,0h8.2c0.2,0,0.3-0.1,0.3-0.3v-17c0-0.2-0.1-0.3-0.3-0.3h-8.2c-0.3,0,0,0.3,0,0v-30.7v-8.5c0-0.2-0.1-0.3-0.3-0.3
		h-31c-0.2,0-0.3,0.1-0.3,0.3v8.2c0,0.3,0.3,0,0,0h-16.4c-0.3,0,0,0.3,0,0v-8.2c0-0.2-0.1-0.3-0.3-0.3h-17c-0.2,0-0.3,0.1-0.3,0.3
		v8.2c0,0.3,0.3,0,0,0h-16.4c-0.3,0,0,0.3,0,0v-8.2c0-0.2-0.1-0.3-0.3-0.3h-17c-0.2,0-0.3,0.1-0.3,0.3v8.2c0,0.3,0.3,0,0,0h-16.4
		c-0.3,0,0,0.3,0,0v-8.2c0-0.2-0.1-0.3-0.3-0.3h-17c-0.2,0-0.3,0.1-0.3,0.3v8.2c0,0.3,0.3,0,0,0h-16.4c-0.3,0,0,0.3,0,0v-8.2
		c0-0.2-0.1-0.3-0.3-0.3h-31c-0.2,0-0.3,0.1-0.3,0.3v8.5v30.7c0,0.3,0.3,0,0,0h-8.2c-0.2,0-0.3,0.1-0.3,0.3v17
		c0,0.2,0.1,0.3,0.3,0.3h8.2c0.3,0,0-0.3,0,0v16.4c0,0.3,0.3,0,0,0h-8.2c-0.2,0-0.3,0.1-0.3,0.3v17c0,0.2,0.1,0.3,0.3,0.3h8.2
		c0.3,0,0-0.3,0,0v16.4c0,0.3,0.3,0,0,0h-8.2c-0.2,0-0.3,0.1-0.3,0.3v17c0,0.2,0.1,0.3,0.3,0.3h8.2c0.3,0,0-0.3,0,0v16.4
		c0,0.3,0.3,0,0,0h-8.2c-0.2,0-0.3,0.1-0.3,0.3v17c0,0.2,0.1,0.3,0.3,0.3h8.2c0.3,0,0-0.3,0,0v30.7
		C336.9,432.6,337,432.7,337.1,432.7"/>
</g>
<g id="p-4">
	<text transform="matrix(1 0 0 1 164.2849 346.2662)" class="st1 st2 st4">Wall 3</text>
	<path class="st0" d="M44.3,432.7H69c0.3,0,0-0.3,0,0v8.2c0,0.2,0.1,0.3,0.3,0.3h17c0.2,0,0.3-0.1,0.3-0.3v-8.2c0-0.3-0.3,0,0,0H103
		c0.3,0,0-0.3,0,0v8.2c0,0.2,0.1,0.3,0.3,0.3h17c0.2,0,0.3-0.1,0.3-0.3v-8.2c0-0.3-0.3,0,0,0H137c0.3,0,0-0.3,0,0v8.2
		c0,0.2,0.1,0.3,0.3,0.3h17c0.2,0,0.3-0.1,0.3-0.3v-8.2c0-0.3-0.3,0,0,0H171c0.3,0,0-0.3,0,0v8.2c0,0.2,0.1,0.3,0.3,0.3h17
		c0.2,0,0.3-0.1,0.3-0.3v-8.2c0-0.3-0.3,0,0,0h16.4c0.3,0,0-0.3,0,0v8.2c0,0.2,0.1,0.3,0.3,0.3h17c0.2,0,0.3-0.1,0.3-0.3v-8.2
		c0-0.3-0.3,0,0,0h16.4c0.3,0,0-0.3,0,0v8.2c0,0.2,0.1,0.3,0.3,0.3h17c0.2,0,0.3-0.1,0.3-0.3v-8.2c0-0.3-0.3,0,0,0h16.4
		c0.3,0,0-0.3,0,0v8.2c0,0.2,0.1,0.3,0.3,0.3h17c0.2,0,0.3-0.1,0.3-0.3v-8.2c0-0.3-0.3,0,0,0h24.7h8.5c0.2,0,0.3-0.1,0.3-0.3v-31
		c0-0.2-0.1-0.3-0.3-0.3h-8.2c-0.3,0,0,0.3,0,0v-16.4c0-0.3-0.3,0,0,0h8.2c0.2,0,0.3-0.1,0.3-0.3v-17c0-0.2-0.1-0.3-0.3-0.3h-8.2
		c-0.3,0,0,0.3,0,0v-16.4c0-0.3-0.3,0,0,0h8.2c0.2,0,0.3-0.1,0.3-0.3v-17c0-0.2-0.1-0.3-0.3-0.3h-8.2c-0.3,0,0,0.3,0,0v-16.4
		c0-0.3-0.3,0,0,0h8.2c0.2,0,0.3-0.1,0.3-0.3v-17c0-0.2-0.1-0.3-0.3-0.3h-8.2c-0.3,0,0,0.3,0,0v-16.4c0-0.3-0.3,0,0,0h8.2
		c0.2,0,0.3-0.1,0.3-0.3v-31v-8.5c0-0.2-0.1-0.3-0.3-0.3h-8.5h-24.9c-0.2,0-0.3,0.1-0.3,0.3v8.2c0,0.3,0.3,0,0,0h-16.4
		c-0.3,0,0,0.3,0,0v-8.2c0-0.2-0.1-0.3-0.3-0.3h-17c-0.2,0-0.3,0.1-0.3,0.3v8.2c0,0.3,0.3,0,0,0h-16.4c-0.3,0,0,0.3,0,0v-8.2
		c0-0.2-0.1-0.3-0.3-0.3h-17c-0.2,0-0.3,0.1-0.3,0.3v8.2c0,0.3,0.3,0,0,0h-16.4c-0.3,0,0,0.3,0,0v-8.2c0-0.2-0.1-0.3-0.3-0.3h-17
		c-0.2,0-0.3,0.1-0.3,0.3v8.2c0,0.3,0.3,0,0,0h-16.4c-0.3,0,0,0.3,0,0v-8.2c0-0.2-0.1-0.3-0.3-0.3h-17c-0.2,0-0.3,0.1-0.3,0.3v8.2
		c0,0.3,0.3,0,0,0h-16.4c-0.3,0,0,0.3,0,0v-8.2c0-0.2-0.1-0.3-0.3-0.3h-17c-0.2,0-0.3,0.1-0.3,0.3v8.2c0,0.3,0.3,0,0,0h-16.4
		c-0.3,0,0,0.3,0,0v-8.2c0-0.2-0.1-0.3-0.3-0.3h-17c-0.2,0-0.3,0.1-0.3,0.3v8.2c0,0.3,0.3,0,0,0H69.6c-0.3,0,0,0.3,0,0v-8.2
		c0-0.2-0.1-0.3-0.3-0.3H44.3h-8.5c-0.2,0-0.3,0.1-0.3,0.3v8.5v31c0,0.2,0.1,0.3,0.3,0.3H44c0.3,0,0-0.3,0,0v16.4c0,0.3,0.3,0,0,0
		h-8.2c-0.2,0-0.3,0.1-0.3,0.3v17c0,0.2,0.1,0.3,0.3,0.3H44c0.3,0,0-0.3,0,0v16.4c0,0.3,0.3,0,0,0h-8.2c-0.2,0-0.3,0.1-0.3,0.3v17
		c0,0.2,0.1,0.3,0.3,0.3H44c0.3,0,0-0.3,0,0v16.4c0,0.3,0.3,0,0,0h-8.2c-0.2,0-0.3,0.1-0.3,0.3v17c0,0.2,0.1,0.3,0.3,0.3H44
		c0.3,0,0-0.3,0,0v16.4c0,0.3,0.3,0,0,0h-8.2c-0.2,0-0.3,0.1-0.3,0.3v31c0,0.2,0.1,0.3,0.3,0.3H44.3"/>
</g>
<g id="p-5">
	<text transform="matrix(1 0 0 1 170.6853 143.4478)" class="st1 st2 st4">Top</text>
	<path class="st0" d="M44.3,229.9H69c0.3,0,0-0.3,0,0v8.2c0,0.2,0.1,0.3,0.3,0.3h17c0.2,0,0.3-0.1,0.3-0.3v-8.2c0-0.3-0.3,0,0,0H103
		c0.3,0,0-0.3,0,0v8.2c0,0.2,0.1,0.3,0.3,0.3h17c0.2,0,0.3-0.1,0.3-0.3v-8.2c0-0.3-0.3,0,0,0H137c0.3,0,0-0.3,0,0v8.2
		c0,0.2,0.1,0.3,0.3,0.3h17c0.2,0,0.3-0.1,0.3-0.3v-8.2c0-0.3-0.3,0,0,0H171c0.3,0,0-0.3,0,0v8.2c0,0.2,0.1,0.3,0.3,0.3h17
		c0.2,0,0.3-0.1,0.3-0.3v-8.2c0-0.3-0.3,0,0,0h16.4c0.3,0,0-0.3,0,0v8.2c0,0.2,0.1,0.3,0.3,0.3h17c0.2,0,0.3-0.1,0.3-0.3v-8.2
		c0-0.3-0.3,0,0,0h16.4c0.3,0,0-0.3,0,0v8.2c0,0.2,0.1,0.3,0.3,0.3h17c0.2,0,0.3-0.1,0.3-0.3v-8.2c0-0.3-0.3,0,0,0h16.4
		c0.3,0,0-0.3,0,0v8.2c0,0.2,0.1,0.3,0.3,0.3h17c0.2,0,0.3-0.1,0.3-0.3v-8.2c0-0.3-0.3,0,0,0h24.7c0.2,0,0.3-0.1,0.3-0.3v-30.7
		c0-0.3-0.3,0,0,0h8.2c0.2,0,0.3-0.1,0.3-0.3v-17c0-0.2-0.1-0.3-0.3-0.3h-8.2c-0.3,0,0,0.3,0,0v-16.4c0-0.3-0.3,0,0,0h8.2
		c0.2,0,0.3-0.1,0.3-0.3v-17c0-0.2-0.1-0.3-0.3-0.3h-8.2c-0.3,0,0,0.3,0,0v-16.4c0-0.3-0.3,0,0,0h8.2c0.2,0,0.3-0.1,0.3-0.3v-17
		c0-0.2-0.1-0.3-0.3-0.3h-8.2c-0.3,0,0,0.3,0,0V96.9c0-0.3-0.3,0,0,0h8.2c0.2,0,0.3-0.1,0.3-0.3v-17c0-0.2-0.1-0.3-0.3-0.3h-8.2
		c-0.3,0,0,0.3,0,0V48.6c0-0.2-0.1-0.3-0.3-0.3h-24.7c-0.3,0,0,0.3,0,0v-8.2c0-0.2-0.1-0.3-0.3-0.3h-17c-0.2,0-0.3,0.1-0.3,0.3v8.2
		c0,0.3,0.3,0,0,0h-16.4c-0.3,0,0,0.3,0,0v-8.2c0-0.2-0.1-0.3-0.3-0.3h-17c-0.2,0-0.3,0.1-0.3,0.3v8.2c0,0.3,0.3,0,0,0h-16.4
		c-0.3,0,0,0.3,0,0v-8.2c0-0.2-0.1-0.3-0.3-0.3h-17c-0.2,0-0.3,0.1-0.3,0.3v8.2c0,0.3,0.3,0,0,0h-16.4c-0.3,0,0,0.3,0,0v-8.2
		c0-0.2-0.1-0.3-0.3-0.3h-17c-0.2,0-0.3,0.1-0.3,0.3v8.2c0,0.3,0.3,0,0,0h-16.4c-0.3,0,0,0.3,0,0v-8.2c0-0.2-0.1-0.3-0.3-0.3h-17
		c-0.2,0-0.3,0.1-0.3,0.3v8.2c0,0.3,0.3,0,0,0h-16.4c-0.3,0,0,0.3,0,0v-8.2c0-0.2-0.1-0.3-0.3-0.3h-17c-0.2,0-0.3,0.1-0.3,0.3v8.2
		c0,0.3,0.3,0,0,0H86.6c-0.3,0,0,0.3,0,0v-8.2c0-0.2-0.1-0.3-0.3-0.3h-17c-0.2,0-0.3,0.1-0.3,0.3v8.2c0,0.3,0.3,0,0,0H44.3
		c-0.2,0-0.3,0.1-0.3,0.3v30.7c0,0.3,0.3,0,0,0h-8.2c-0.2,0-0.3,0.1-0.3,0.3v17c0,0.2,0.1,0.3,0.3,0.3H44c0.3,0,0-0.3,0,0v16.4
		c0,0.3,0.3,0,0,0h-8.2c-0.2,0-0.3,0.1-0.3,0.3v17c0,0.2,0.1,0.3,0.3,0.3H44c0.3,0,0-0.3,0,0v16.4c0,0.3,0.3,0,0,0h-8.2
		c-0.2,0-0.3,0.1-0.3,0.3v17c0,0.2,0.1,0.3,0.3,0.3H44c0.3,0,0-0.3,0,0v16.4c0,0.3,0.3,0,0,0h-8.2c-0.2,0-0.3,0.1-0.3,0.3v17
		c0,0.2,0.1,0.3,0.3,0.3H44c0.3,0,0-0.3,0,0v30.7C44,229.8,44.2,229.9,44.3,229.9"/>
</g>
<g id="p-6">
	<path class="st5" d="M379.1,229.3h-8.2c-0.3,0,0,0.3,0,0v-7.9c0-0.3-0.3,0,0,0h16.4c0.3,0,0-0.3,0,0v7.9c0,0.3,0.3,0,0,0H379.1z"/>
	<path class="st5" d="M413.1,229.3h-8.2c-0.3,0,0,0.3,0,0v-7.9c0-0.3-0.3,0,0,0h16.4c0.3,0,0-0.3,0,0v7.9c0,0.3,0.3,0,0,0H413.1z"/>
	<path class="st5" d="M447.1,229.3h-8.2c-0.3,0,0,0.3,0,0v-7.9c0-0.3-0.3,0,0,0h16.4c0.3,0,0-0.3,0,0v7.9c0,0.3,0.3,0,0,0H447.1z"/>
	<path class="st5" d="M481.1,229.3h-8.2c-0.3,0,0,0.3,0,0v-7.9c0-0.3-0.3,0,0,0h16.4c0.3,0,0-0.3,0,0v7.9c0,0.3,0.3,0,0,0H481.1z"/>
	<path class="st5" d="M515.2,229.3h-8.2c-0.3,0,0,0.3,0,0v-7.9c0-0.3-0.3,0,0,0h16.4c0.3,0,0-0.3,0,0v7.9c0,0.3,0.3,0,0,0H515.2z"/>
	<path class="st5" d="M549.2,229.3H541c-0.3,0,0,0.3,0,0v-7.9c0-0.3-0.3,0,0,0h16.4c0.3,0,0-0.3,0,0v7.9c0,0.3,0.3,0,0,0H549.2z"/>
	<path class="st5" d="M583.2,229.3H575c-0.3,0,0,0.3,0,0v-7.9c0-0.3-0.3,0,0,0h16.4c0.3,0,0-0.3,0,0v7.9c0,0.3,0.3,0,0,0H583.2z"/>
	<text transform="matrix(1 0 0 1 468.2263 134.9439)" class="st1 st2 st4">Base</text>
	<path class="st0" d="M345.7,238.4h271h17c0.2,0,0.3-0.1,0.3-0.3v-17v-181v-17c0-0.2-0.1-0.3-0.3-0.3h-17h-271h-17
		c-0.2,0-0.3,0.1-0.3,0.3v17v181v17c0,0.2,0.1,0.3,0.3,0.3H345.7"/>
	<path class="st5" d="M624.9,181.6v8.2c0,0.3,0.3,0,0,0h-7.9c-0.3,0,0,0.3,0,0v-16.4c0-0.3-0.3,0,0,0h7.9c0.3,0,0-0.3,0,0V181.6z"/>
	<path class="st5" d="M624.9,147.6v8.2c0,0.3,0.3,0,0,0h-7.9c-0.3,0,0,0.3,0,0v-16.4c0-0.3-0.3,0,0,0h7.9c0.3,0,0-0.3,0,0V147.6z"/>
	<path class="st5" d="M624.9,113.6v8.2c0,0.3,0.3,0,0,0h-7.9c-0.3,0,0,0.3,0,0v-16.4c0-0.3-0.3,0,0,0h7.9c0.3,0,0-0.3,0,0V113.6z"/>
	<path class="st5" d="M624.9,79.6v8.2c0,0.3,0.3,0,0,0h-7.9c-0.3,0,0,0.3,0,0V71.4c0-0.3-0.3,0,0,0h7.9c0.3,0,0-0.3,0,0V79.6z"/>
	<path class="st5" d="M583.2,31.9h8.2c0.3,0,0-0.3,0,0v7.9c0,0.3,0.3,0,0,0H575c-0.3,0,0,0.3,0,0v-7.9c0-0.3-0.3,0,0,0H583.2z"/>
	<path class="st5" d="M549.2,31.9h8.2c0.3,0,0-0.3,0,0v7.9c0,0.3,0.3,0,0,0H541c-0.3,0,0,0.3,0,0v-7.9c0-0.3-0.3,0,0,0H549.2z"/>
	<path class="st5" d="M515.2,31.9h8.2c0.3,0,0-0.3,0,0v7.9c0,0.3,0.3,0,0,0h-16.4c-0.3,0,0,0.3,0,0v-7.9c0-0.3-0.3,0,0,0H515.2z"/>
	<path class="st5" d="M481.1,31.9h8.2c0.3,0,0-0.3,0,0v7.9c0,0.3,0.3,0,0,0h-16.4c-0.3,0,0,0.3,0,0v-7.9c0-0.3-0.3,0,0,0H481.1z"/>
	<path class="st5" d="M447.1,31.9h8.2c0.3,0,0-0.3,0,0v7.9c0,0.3,0.3,0,0,0h-16.4c-0.3,0,0,0.3,0,0v-7.9c0-0.3-0.3,0,0,0H447.1z"/>
	<path class="st5" d="M413.1,31.9h8.2c0.3,0,0-0.3,0,0v7.9c0,0.3,0.3,0,0,0h-16.4c-0.3,0,0,0.3,0,0v-7.9c0-0.3-0.3,0,0,0H413.1z"/>
	<path class="st5" d="M379.1,31.9h8.2c0.3,0,0-0.3,0,0v7.9c0,0.3,0.3,0,0,0h-16.4c-0.3,0,0,0.3,0,0v-7.9c0-0.3-0.3,0,0,0H379.1z"/>
	<path class="st5" d="M337.4,79.6v-8.2c0-0.3-0.3,0,0,0h7.9c0.3,0,0-0.3,0,0v16.4c0,0.3,0.3,0,0,0h-7.9c-0.3,0,0,0.3,0,0V79.6z"/>
	<path class="st5" d="M337.4,113.6v-8.2c0-0.3-0.3,0,0,0h7.9c0.3,0,0-0.3,0,0v16.4c0,0.3,0.3,0,0,0h-7.9c-0.3,0,0,0.3,0,0V113.6z"/>
	<path class="st5" d="M337.4,147.6v-8.2c0-0.3-0.3,0,0,0h7.9c0.3,0,0-0.3,0,0v16.4c0,0.3,0.3,0,0,0h-7.9c-0.3,0,0,0.3,0,0V147.6z"/>
	<path class="st5" d="M337.4,181.6v-8.2c0-0.3-0.3,0,0,0h7.9c0.3,0,0-0.3,0,0v16.4c0,0.3,0.3,0,0,0h-7.9c-0.3,0,0,0.3,0,0V181.6z"/>
</g>
<g>
	<polygon class="st5" points="575.6,336.9 575.6,365.3 547.1,365.3 547.1,407.9 575.6,407.9 575.6,393.7 603.9,393.7 603.9,407.9 
		631.9,407.9 631.9,365.4 603.6,365.4 603.6,336.9 593.7,336.9 593.7,365.3 585.2,365.3 585.2,336.9 	"/>
</g>
<g>
	<path class="st5" d="M391.6,59.6v14c0,0.5,0.3,0,0,0h-8.2c-0.3,0,0,0.5,0,0V45.6c0-0.5-0.3,0,0,0h8.2c0.3,0,0-0.5,0,0V59.6z"/>
</g>
<g>
	<path class="st5" d="M391.6,116.3v14c0,0.5,0.3,0,0,0h-8.2c-0.3,0,0,0.5,0,0v-27.9c0-0.5-0.3,0,0,0h8.2c0.3,0,0-0.5,0,0V116.3z"/>
</g>
<g>
	<path class="st5" d="M442.9,144.9v14c0,0.5,0.3,0,0,0h-8.2c-0.3,0,0,0.5,0,0V131c0-0.5-0.3,0,0,0h8.2c0.3,0,0-0.5,0,0V144.9z"/>
</g>
<g>
	<path class="st5" d="M442.9,201.6v14c0,0.5,0.3,0,0,0h-8.2c-0.3,0,0,0.5,0,0v-27.9c0-0.5-0.3,0,0,0h8.2c0.3,0,0-0.5,0,0V201.6z"/>
</g>
<g>
	<path class="st5" d="M527.6,144.9v14c0,0.5,0.3,0,0,0h-8.2c-0.3,0,0,0.5,0,0V131c0-0.5-0.3,0,0,0h8.2c0.3,0,0-0.5,0,0V144.9z"/>
</g>
<g>
	<path class="st5" d="M527.6,201.6v14c0,0.5,0.3,0,0,0h-8.2c-0.3,0,0,0.5,0,0v-27.9c0-0.5-0.3,0,0,0h8.2c0.3,0,0-0.5,0,0V201.6z"/>
</g>
<g>
	<path class="st5" d="M579,59.6v14c0,0.5,0.3,0,0,0h-8.2c-0.3,0,0,0.5,0,0V45.6c0-0.5-0.3,0,0,0h8.2c0.3,0,0-0.5,0,0V59.6z"/>
</g>
<g>
	<path class="st5" d="M579,116.3v14c0,0.5,0.3,0,0,0h-8.2c-0.3,0,0,0.5,0,0v-27.9c0-0.5-0.3,0,0,0h8.2c0.3,0,0-0.5,0,0V116.3z"/>
</g>
<g>
	<path class="st5" d="M497.9,59.6v14c0,0.5,0.3,0,0,0h-8.2c-0.3,0,0,0.5,0,0V45.6c0-0.5-0.3,0,0,0h8.2c0.3,0,0-0.5,0,0V59.6z"/>
</g>
<g>
	<path class="st5" d="M497.9,116.3v14c0,0.5,0.3,0,0,0h-8.2c-0.3,0,0,0.5,0,0v-27.9c0-0.5-0.3,0,0,0h8.2c0.3,0,0-0.5,0,0V116.3z"/>
</g>
<g>
	<path class="st5" d="M470.4,59.6v14c0,0.5,0.3,0,0,0h-8.2c-0.3,0,0,0.5,0,0V45.6c0-0.5-0.3,0,0,0h8.2c0.3,0,0-0.5,0,0V59.6z"/>
</g>
<g>
	<path class="st5" d="M470.4,116.3v14c0,0.5,0.3,0,0,0h-8.2c-0.3,0,0,0.5,0,0v-27.9c0-0.5-0.3,0,0,0h8.2c0.3,0,0-0.5,0,0V116.3z"/>
</g>
<g>
	<path class="st5" d="M485.3,144.9v14c0,0.5,0.3,0,0,0H477c-0.3,0,0,0.5,0,0V131c0-0.5-0.3,0,0,0h8.2c0.3,0,0-0.5,0,0V144.9z"/>
</g>
<g>
	<path class="st5" d="M485.3,201.6v14c0,0.5,0.3,0,0,0H477c-0.3,0,0,0.5,0,0v-27.9c0-0.5-0.3,0,0,0h8.2c0.3,0,0-0.5,0,0V201.6z"/>
</g>
<g>
	<path class="st5" d="M595.7,144.9v14c0,0.5,0.3,0,0,0h-8.2c-0.3,0,0,0.5,0,0V131c0-0.5-0.3,0,0,0h8.2c0.3,0,0-0.5,0,0V144.9z"/>
</g>
<g>
	<path class="st5" d="M595.7,201.6v14c0,0.5,0.3,0,0,0h-8.2c-0.3,0,0,0.5,0,0v-27.9c0-0.5-0.3,0,0,0h8.2c0.3,0,0-0.5,0,0V201.6z"/>
</g>
<g>
	<path class="st5" d="M561.6,144.9v14c0,0.5,0.3,0,0,0h-8.2c-0.3,0,0,0.5,0,0V131c0-0.5-0.3,0,0,0h8.2c0.3,0,0-0.5,0,0V144.9z"/>
</g>
<g>
	<path class="st5" d="M561.6,201.6v14c0,0.5,0.3,0,0,0h-8.2c-0.3,0,0,0.5,0,0v-27.9c0-0.5-0.3,0,0,0h8.2c0.3,0,0-0.5,0,0V201.6z"/>
</g>
<g>
	<path class="st5" d="M425.8,59.6v14c0,0.5,0.3,0,0,0h-8.2c-0.3,0,0,0.5,0,0V45.6c0-0.5-0.3,0,0,0h8.2c0.3,0,0-0.5,0,0V59.6z"/>
</g>
<g>
	<path class="st5" d="M425.8,116.3v14c0,0.5,0.3,0,0,0h-8.2c-0.3,0,0,0.5,0,0v-27.9c0-0.5-0.3,0,0,0h8.2c0.3,0,0-0.5,0,0V116.3z"/>
</g>
<g>
	<path class="st5" d="M374.9,144.9v14c0,0.5,0.3,0,0,0h-8.2c-0.3,0,0,0.5,0,0V131c0-0.5-0.3,0,0,0h8.2c0.3,0,0-0.5,0,0V144.9z"/>
</g>
<g>
	<path class="st5" d="M374.9,201.6v14c0,0.5,0.3,0,0,0h-8.2c-0.3,0,0,0.5,0,0v-27.9c0-0.5-0.3,0,0,0h8.2c0.3,0,0-0.5,0,0V201.6z"/>
</g>
<g>
	<path class="st5" d="M408.9,144.9v14c0,0.5,0.3,0,0,0h-8.2c-0.3,0,0,0.5,0,0V131c0-0.5-0.3,0,0,0h8.2c0.3,0,0-0.5,0,0V144.9z"/>
</g>
<g>
	<path class="st5" d="M408.9,201.6v14c0,0.5,0.3,0,0,0h-8.2c-0.3,0,0,0.5,0,0v-27.9c0-0.5-0.3,0,0,0h8.2c0.3,0,0-0.5,0,0V201.6z"/>
</g>
<g>
	<path class="st5" d="M545,59.6v14c0,0.5,0.3,0,0,0h-8.2c-0.3,0,0,0.5,0,0V45.6c0-0.5-0.3,0,0,0h8.2c0.3,0,0-0.5,0,0V59.6z"/>
</g>
<g>
	<path class="st5" d="M545,116.3v14c0,0.5,0.3,0,0,0h-8.2c-0.3,0,0,0.5,0,0v-27.9c0-0.5-0.3,0,0,0h8.2c0.3,0,0-0.5,0,0V116.3z"/>
</g>
<g>
	<polygon class="st5" points="579.7,251.8 579.7,280.2 551.2,280.2 551.2,322.8 579.7,322.8 579.7,308.7 608,308.7 608,322.8 
		636,322.8 636,280.3 607.7,280.3 607.7,251.8 597.8,251.8 597.8,280.2 589.3,280.2 589.3,251.8 	"/>
</g>
<g>
	<polygon class="st5" points="575.6,417.8 575.6,446.2 547.1,446.2 547.1,488.8 575.6,488.8 575.6,474.7 603.9,474.7 603.9,488.8 
		631.9,488.8 631.9,446.3 603.6,446.3 603.6,417.8 593.7,417.8 593.7,446.2 585.2,446.2 585.2,417.8 	"/>
</g>
<g>
	<polygon class="st5" points="575.6,498.7 575.6,527.1 547.1,527.1 547.1,569.7 575.6,569.7 575.6,555.6 603.9,555.6 603.9,569.7 
		631.9,569.7 631.9,527.2 603.6,527.2 603.6,498.7 593.7,498.7 593.7,527.1 585.2,527.1 585.2,498.7 	"/>
</g>
</svg>
