<?xml version="1.0" encoding="utf-8"?>
<!-- Generator: Adobe Illustrator 25.2.1, SVG Export Plug-In . SVG Version: 6.00 Build 0)  -->
<svg version="1.1" id="Layer_1" xmlns="http://www.w3.org/2000/svg" xmlns:xlink="http://www.w3.org/1999/xlink" x="0px" y="0px"
	 viewBox="0 0 14.2 14.2" style="enable-background:new 0 0 14.2 14.2;" xml:space="preserve">
<style type="text/css">
	.st0{fill:none;stroke:#0000FF;stroke-width:7.200000e-02;stroke-linecap:round;stroke-linejoin:round;stroke-miterlimit:11.3386;}
</style>
<g>
	<path class="st0" d="M1.4,1.8v1.4c0,0,0,0,0,0H0.6c0,0,0,0,0,0V0.4c0,0,0,0,0,0h0.8c0,0,0,0,0,0V1.8z"/>
</g>
<g>
	<path class="st0" d="M1.4,7.5v1.4c0,0,0,0,0,0H0.6c0,0,0,0,0,0V6.1c0,0,0,0,0,0h0.8c0,0,0,0,0,0V7.5z"/>
</g>
<g>
	<polygon class="st0" points="7.3,1.4 7.3,4.3 4.5,4.3 4.5,8.5 7.3,8.5 7.3,7.1 10.2,7.1 10.2,8.5 13,8.5 13,4.3 10.1,4.3 10.1,1.4 
		9.1,1.4 9.1,4.3 8.3,4.3 8.3,1.4 	"/>
</g>
</svg>
