<svg width="549" height="800" xmlns="http://www.w3.org/2000/svg"><path d="M321 524 322 525 322 529 321 530 322 531 322 524 " style="stroke:pink"/><path d="M491 521 493 521 494 522 494 530 493 531 493 532 492 533 492 535 492 534 493 533 493 531 494 530 494 522 493 521 " style="stroke:pink"/><path d="M485 518 486 519 486 520 486 519 " style="stroke:pink"/><path d="M482 518 482 519 483 520 483 532 482 533 482 534 480 536 480 540 479 541 479 545 487 545 488 544 489 544 488 543 488 542 487 541 487 539 486 538 486 532 486 538 487 539 487 541 488 542 488 543 486 545 480 545 479 544 479 541 480 540 480 537 482 535 482 534 483 533 483 519 " style="stroke:pink"/><path d="M480 517 480 518 479 519 479 520 478 521 479 522 479 525 480 526 480 533 480 525 479 524 479 520 480 519 " style="stroke:pink"/><path d="M310 512 310 513 309 514 310 515 " style="stroke:pink"/><path d="M469 510 468 511 467 511 472 516 473 516 474 517 475 517 476 518 476 519 475 520 475 528 476 529 476 531 477 532 477 534 477 531 476 530 476 529 475 528 475 520 477 518 476 517 475 517 474 516 473 516 468 511 " style="stroke:pink"/><path d="M486 508 489 508 490 509 492 509 493 508 492 509 490 509 489 508 " style="stroke:pink"/><path d="M330 506 329 507 328 507 326 509 326 511 322 515 321 514 320 514 319 515 319 518 318 519 318 520 319 521 320 520 321 521 321 518 322 517 322 515 323 514 324 514 325 515 325 517 324 518 324 519 323 520 323 522 325 524 325 531 325 523 323 521 323 520 325 518 325 515 324 514 325 513 325 512 326 511 326 510 330 506 331 507 331 508 330 509 330 510 329 511 329 514 328 515 328 517 327 518 327 519 328 518 328 515 329 514 329 512 330 511 330 509 331 508 331 506 " style="stroke:pink"/><path d="M314 506 312 508 311 508 310 509 309 509 310 510 312 508 313 508 314 507 " style="stroke:pink"/><path d="M496 505 496 507 495 508 495 509 493 511 490 511 493 511 494 510 495 510 495 508 496 507 " style="stroke:pink"/><path d="M323 504 322 505 321 505 319 507 319 508 317 510 316 509 316 506 316 509 317 510 318 510 319 509 319 508 322 505 323 505 324 504 " style="stroke:pink"/><path d="M309 504 311 506 311 505 310 504 " style="stroke:pink"/><path d="M311 501 310 502 311 502 312 503 313 503 " style="stroke:pink"/><path d="M336 499 335 500 334 500 333 501 332 501 330 503 329 503 325 507 324 507 318 513 317 513 317 514 316 515 316 516 315 517 315 531 314 532 315 533 315 535 314 536 315 537 315 538 314 539 314 543 315 544 319 544 321 546 323 546 324 545 347 545 348 546 427 546 428 545 438 545 439 546 440 545 442 545 443 546 444 545 445 546 465 546 466 545 467 546 468 546 469 545 476 545 469 545 468 546 467 546 466 545 465 546 445 546 444 545 443 546 442 545 440 545 439 546 438 545 428 545 427 546 348 546 347 545 346 545 345 544 346 543 346 523 347 522 347 521 348 520 349 520 348 520 347 519 347 508 348 507 347 506 347 502 347 522 346 523 346 543 344 545 343 545 341 543 341 542 342 541 342 535 343 534 343 526 343 534 342 535 342 541 341 542 341 543 342 544 341 545 324 545 323 546 321 546 319 544 319 542 322 539 322 538 323 537 323 534 319 534 318 533 317 534 316 533 315 533 314 532 315 531 315 525 316 524 318 524 319 525 319 527 317 529 317 530 319 528 319 524 318 523 317 524 316 524 315 523 315 520 316 519 315 518 315 517 316 516 316 515 319 512 320 512 323 509 324 510 323 509 327 505 328 505 330 503 331 503 334 500 335 500 336 501 336 502 334 504 333 504 334 505 334 508 333 509 333 511 332 512 332 514 331 515 331 517 330 518 330 521 328 523 328 524 329 523 329 522 330 521 330 519 331 518 331 516 332 515 332 513 333 512 333 510 334 509 334 505 336 503 " style="stroke:pink"/><path d="M406 498 406 499 405 500 403 500 403 501 404 500 411 500 412 501 410 503 408 503 411 503 411 502 413 500 415 500 416 501 417 501 418 502 416 504 415 504 414 505 412 505 415 505 416 504 417 504 417 503 420 500 422 500 423 499 442 499 443 498 445 498 443 498 442 499 423 499 422 500 420 500 419 501 416 501 415 500 407 500 406 499 " style="stroke:pink"/><path d="M362 492 363 493 362 494 360 494 359 493 360 494 361 494 362 495 363 495 371 503 372 503 373 504 376 504 378 506 378 505 377 505 376 504 377 503 377 502 379 500 378 499 378 500 377 501 377 503 376 504 374 504 373 503 372 503 364 495 363 495 362 494 363 493 364 493 364 492 363 493 " style="stroke:pink"/><path d="M308 491 309 491 310 492 312 492 313 493 316 493 313 493 312 492 310 492 309 491 " style="stroke:pink"/><path d="M361 489 360 490 359 490 358 491 356 491 355 492 354 492 356 492 357 491 359 491 360 490 361 490 " style="stroke:pink"/><path d="M467 485 467 486 469 488 469 489 470 489 473 492 473 493 476 496 476 497 477 498 477 497 476 496 476 495 475 494 476 493 479 493 480 492 482 492 483 491 486 491 487 490 488 491 489 491 490 492 491 491 492 491 493 492 491 494 490 494 490 495 489 496 483 496 482 497 479 497 482 497 483 496 489 496 490 497 489 498 487 498 486 499 484 499 483 500 481 500 483 500 484 499 487 499 488 498 489 498 490 497 491 497 493 499 493 500 494 501 494 502 495 502 494 501 494 500 492 498 492 497 491 497 490 496 490 495 491 494 492 494 492 493 493 492 493 491 489 491 487 489 485 489 484 488 483 488 482 489 479 489 478 490 475 490 478 490 479 489 482 489 483 488 484 489 486 489 487 490 486 491 482 491 481 492 480 492 479 493 476 493 475 494 473 492 473 491 471 489 470 489 468 487 468 486 " style="stroke:pink"/><path d="M315 484 315 485 316 485 317 486 318 486 324 492 325 492 326 493 326 494 326 493 327 492 329 492 329 489 328 489 326 487 325 487 324 486 323 486 324 487 325 487 327 489 328 489 329 490 329 491 328 492 325 492 319 486 318 486 317 485 317 484 316 485 " style="stroke:pink"/><path d="M340 481 339 482 339 485 339 483 340 482 " style="stroke:pink"/><path d="M338 477 334 481 334 483 331 486 330 486 328 484 327 484 326 483 323 483 326 483 329 486 332 486 334 484 334 482 339 477 341 479 340 478 340 477 " style="stroke:pink"/><path d="M325 463 326 463 327 464 326 465 325 465 324 466 325 465 328 468 331 468 328 468 326 466 326 465 327 464 331 464 327 464 326 463 " style="stroke:pink"/><path d="M494 462 494 464 493 465 493 466 494 467 494 469 493 470 492 470 491 471 490 470 489 470 488 469 488 468 491 465 488 468 485 468 484 467 483 467 482 468 480 468 482 468 483 467 484 468 485 468 486 469 485 470 484 470 482 472 481 472 480 473 478 473 477 472 477 470 478 469 478 468 477 467 474 467 476 467 478 469 477 470 477 474 478 475 478 476 479 477 478 478 477 478 476 479 473 479 471 477 472 476 473 476 474 475 473 476 471 474 472 475 472 476 470 478 468 478 467 477 468 476 468 474 470 472 473 472 469 472 469 473 468 474 468 476 467 477 467 478 463 482 462 482 460 484 461 485 461 488 462 489 462 490 463 491 463 496 464 497 464 501 466 503 466 504 467 505 468 505 470 507 471 507 476 512 476 513 475 514 474 514 471 511 474 514 476 514 476 511 472 507 471 507 469 505 468 505 465 502 465 501 464 500 464 497 463 496 463 491 462 490 462 489 461 488 462 487 461 486 461 485 460 484 461 483 462 483 465 480 466 480 468 478 470 478 471 477 472 478 472 479 473 480 474 480 475 479 476 479 477 478 478 478 479 477 481 477 482 478 483 477 484 478 484 479 483 480 482 480 481 481 478 481 477 482 474 482 472 484 473 483 474 484 475 484 476 485 477 485 478 486 477 487 473 487 472 486 471 486 470 485 470 484 469 484 471 486 472 486 473 487 478 487 479 486 480 486 481 485 482 485 480 483 479 484 480 484 481 485 480 486 478 486 477 485 476 485 475 484 474 484 473 483 474 482 478 482 479 481 482 481 483 480 486 480 485 480 484 479 485 478 487 478 488 477 489 477 490 476 491 476 492 475 493 476 493 477 492 478 491 478 491 479 490 480 489 480 489 482 490 483 490 484 488 486 487 486 487 487 488 486 489 486 490 485 492 485 491 485 490 484 491 483 493 483 494 484 494 488 494 484 493 483 491 483 489 481 493 477 496 477 495 477 494 476 493 476 492 475 493 474 496 474 492 474 489 477 488 477 487 478 485 478 484 477 480 477 477 474 478 473 481 473 483 471 484 471 487 468 489 470 487 472 489 470 490 470 491 471 488 474 487 474 486 475 485 474 485 475 487 475 488 474 489 474 493 470 494 470 495 471 494 470 " style="stroke:pink"/><path d="M500 458 500 461 " style="stroke:pink"/><path d="M339 457 339 458 " style="stroke:pink"/><path d="M342 455 342 457 341 458 342 458 344 460 344 463 345 464 345 467 346 468 346 469 348 471 348 472 347 473 347 474 346 475 346 476 345 477 345 478 344 479 344 480 343 481 343 482 342 483 342 485 341 486 341 487 339 489 338 489 336 491 336 492 335 493 334 493 331 496 326 496 324 498 324 499 323 500 322 499 312 499 311 498 312 497 314 497 315 496 317 496 318 495 319 496 320 495 321 496 323 496 321 496 320 495 319 496 318 495 317 495 316 496 313 496 312 497 310 497 311 498 311 499 322 499 324 501 324 502 324 501 323 500 327 496 332 496 339 489 340 489 341 488 341 486 342 485 342 484 343 483 343 482 344 481 344 480 345 479 345 478 346 477 346 475 347 474 347 473 348 472 348 471 346 469 346 468 345 467 345 463 344 462 344 459 343 459 342 458 " style="stroke:pink"/><path d="M341 450 341 451 340 452 339 452 338 453 338 455 335 458 334 458 333 459 328 459 327 460 325 460 324 461 323 461 321 463 318 463 315 466 313 466 312 467 315 470 314 471 312 471 313 472 314 471 315 471 316 470 317 471 318 471 322 475 322 476 321 477 320 477 317 474 314 474 316 474 319 477 318 478 316 478 315 479 314 478 313 478 311 476 311 473 311 475 310 476 312 478 314 478 315 479 316 478 318 478 319 477 321 477 322 478 321 477 323 475 324 475 323 475 319 471 317 471 316 470 315 470 312 467 313 466 315 466 316 465 317 465 320 468 321 468 322 469 322 470 323 471 324 471 326 473 333 473 334 472 335 472 338 469 339 469 341 471 338 474 337 474 335 476 334 476 333 477 330 477 329 478 326 478 325 479 324 479 322 481 321 481 320 482 313 482 312 483 311 483 312 484 311 485 310 485 308 487 309 487 314 482 321 482 322 481 323 481 325 479 326 479 327 478 329 478 330 477 333 477 334 476 335 476 336 475 337 475 338 474 339 474 341 472 343 474 342 475 343 474 341 472 341 471 339 469 341 467 341 465 342 464 341 463 341 460 341 463 342 464 341 465 341 466 340 467 340 468 339 469 338 469 336 471 335 471 333 473 327 473 325 471 324 471 322 469 322 468 321 468 319 466 318 466 317 465 319 463 322 463 324 461 325 461 326 460 327 460 328 459 334 459 335 458 336 458 336 457 339 454 339 453 341 451 " style="stroke:pink"/><path d="M489 449 488 450 487 450 484 453 484 454 488 450 489 450 490 449 492 449 " style="stroke:pink"/><path d="M312 447 312 449 313 450 313 451 312 452 313 453 313 454 311 456 311 458 312 459 313 459 314 460 314 459 315 458 316 458 318 460 320 460 319 460 317 458 318 457 321 457 322 458 321 457 318 457 317 458 315 456 315 458 314 459 313 459 311 457 312 456 312 455 313 454 318 454 319 453 320 453 321 452 322 452 323 453 322 452 319 452 317 454 314 454 313 453 315 451 314 451 312 449 " style="stroke:pink"/><path d="M499 442 499 443 500 444 500 446 499 447 499 448 499 447 500 446 500 444 499 443 " style="stroke:pink"/><path d="M375 441 373 443 373 449 371 451 371 454 370 455 370 458 369 459 369 460 367 462 367 466 365 468 365 469 364 470 364 477 363 478 363 479 362 480 362 481 361 482 357 482 356 483 354 483 354 484 355 485 355 486 356 485 357 486 358 485 359 486 361 486 364 489 365 488 366 489 368 489 369 490 370 489 371 490 379 490 380 491 381 491 384 494 387 494 388 495 389 495 390 494 393 494 390 494 389 493 391 491 396 491 397 492 403 492 404 491 411 491 412 492 413 492 414 493 415 493 416 492 418 492 419 491 427 491 428 490 431 490 432 489 434 489 435 488 439 488 440 487 442 487 443 486 444 486 446 488 445 489 444 489 442 491 441 491 439 493 438 493 437 494 436 494 435 495 434 495 433 496 433 497 435 495 436 495 437 494 438 494 439 493 440 493 442 491 443 491 445 489 446 489 447 488 446 488 444 486 443 486 442 487 440 487 439 488 435 488 434 489 432 489 431 490 428 490 427 491 419 491 418 492 416 492 415 493 414 493 413 492 412 492 411 491 404 491 403 492 397 492 396 491 391 491 389 493 390 494 389 495 388 495 387 494 384 494 381 491 380 491 379 490 371 490 370 489 366 489 365 488 364 488 362 486 359 486 358 485 357 486 356 485 355 485 354 484 355 483 356 483 357 482 361 482 362 483 363 483 364 484 366 484 367 485 369 485 370 486 374 486 375 487 379 487 380 486 381 487 383 487 384 486 395 486 396 487 404 487 405 488 408 488 409 487 410 487 411 486 426 486 427 485 436 485 437 484 441 484 437 484 436 485 427 485 426 486 411 486 410 487 408 487 407 488 405 488 403 486 403 485 403 486 402 487 396 487 395 486 384 486 383 487 381 487 380 486 379 487 375 487 374 486 370 486 369 485 367 485 366 484 364 484 363 483 362 483 361 482 362 481 362 480 363 479 363 478 364 477 364 471 365 470 365 469 366 468 366 467 367 466 367 462 369 460 369 459 370 458 370 455 371 454 371 451 373 449 373 444 374 443 374 442 375 441 376 441 377 442 378 442 379 443 381 443 382 444 384 444 385 445 390 445 391 444 403 444 404 443 418 443 419 442 430 442 431 443 431 444 432 444 433 445 434 445 435 444 437 446 439 446 440 447 440 448 438 450 438 451 437 452 437 453 438 454 438 459 439 460 439 465 440 466 440 467 441 468 441 471 442 472 442 479 443 480 443 481 444 482 445 482 446 483 447 483 450 486 450 490 448 492 447 492 445 494 444 494 443 493 444 494 442 496 440 496 442 496 444 494 446 494 448 492 449 492 450 493 450 495 449 496 449 498 447 500 446 500 445 501 445 503 440 508 422 508 421 509 402 509 401 510 400 509 377 509 376 508 365 508 364 507 360 507 359 506 359 502 358 501 358 500 359 499 364 499 358 499 358 501 357 502 358 502 359 503 359 506 358 507 354 507 353 506 353 503 354 502 355 502 354 502 352 500 352 498 353 497 352 496 352 492 351 491 351 490 352 489 355 489 356 488 359 488 356 488 355 489 351 489 351 493 352 494 352 500 353 501 353 508 352 509 351 509 350 508 350 505 349 504 350 503 350 500 349 500 348 499 347 500 345 500 344 501 344 508 343 509 343 516 342 517 342 520 341 521 341 524 340 525 340 527 339 528 339 534 338 535 338 537 337 538 336 538 335 537 333 537 332 536 330 536 327 533 327 532 328 531 327 532 327 534 329 536 332 536 333 537 335 537 338 540 337 541 337 543 337 541 338 540 337 539 338 538 338 535 339 534 339 529 340 528 340 527 341 526 340 525 341 524 341 523 342 522 341 521 342 520 342 517 343 516 343 509 344 508 344 502 346 500 349 500 350 501 350 503 349 504 350 505 350 511 349 512 350 513 350 510 351 509 352 509 353 510 353 508 354 507 358 507 359 506 360 507 364 507 365 508 376 508 377 509 400 509 401 510 402 509 421 509 422 508 440 508 441 507 442 507 445 504 445 502 447 500 448 500 448 499 449 498 449 496 450 495 450 493 449 492 450 491 450 485 448 483 446 483 442 479 442 472 441 471 441 468 440 467 440 465 439 464 439 460 438 459 438 454 437 453 437 452 440 449 441 449 440 448 440 447 439 446 438 446 437 445 436 445 435 444 432 444 430 442 419 442 418 443 404 443 403 444 391 444 390 445 385 445 384 444 382 444 381 443 379 443 378 442 377 442 376 441 " style="stroke:pink"/><path d="M358 440 358 442 359 443 359 445 358 446 358 447 356 449 356 451 355 452 355 453 353 455 353 456 355 454 355 452 356 451 356 449 358 447 358 446 359 445 359 443 358 442 " style="stroke:pink"/><path d="M497 436 498 437 498 440 498 437 " style="stroke:pink"/><path d="M452 436 452 441 451 442 451 443 450 444 451 444 452 445 452 446 453 447 453 456 454 457 454 461 453 462 453 464 454 465 454 467 455 468 455 470 456 471 456 474 457 475 457 477 458 478 458 479 459 480 459 482 459 479 458 478 458 477 457 476 457 474 456 473 456 471 455 470 455 468 454 467 454 464 453 463 453 462 454 461 454 457 453 456 453 447 452 446 452 445 451 444 451 442 452 441 452 438 453 437 455 439 455 442 456 443 456 448 457 449 457 452 458 453 458 456 459 457 459 462 460 463 460 464 461 465 461 468 460 469 460 470 459 471 460 472 459 473 459 474 460 475 460 476 460 474 459 473 460 472 460 469 461 468 461 467 462 466 460 464 460 463 459 462 459 457 458 456 458 453 457 452 457 449 456 448 456 442 455 441 455 438 454 437 454 436 453 437 " style="stroke:pink"/><path d="M391 434 391 438 390 439 390 440 389 441 388 441 387 440 387 438 386 438 383 435 383 436 384 436 387 439 387 440 388 441 387 442 388 442 390 440 390 439 391 438 " style="stroke:pink"/><path d="M416 432 " style="stroke:pink"/><path d="M347 432 347 439 346 440 346 441 345 442 344 441 344 437 345 436 344 436 343 435 343 436 344 437 344 441 346 443 346 454 347 455 347 456 346 457 347 458 347 460 349 462 348 463 348 466 348 463 349 462 350 462 347 459 347 458 346 457 347 456 347 455 346 454 346 441 348 439 349 439 350 438 349 439 348 439 347 438 347 435 349 433 350 434 353 434 354 435 357 435 358 436 359 436 360 437 360 438 363 441 362 442 362 446 361 447 361 448 359 450 359 451 361 449 361 447 362 446 362 442 363 441 365 443 367 443 368 444 369 444 370 445 370 446 368 448 368 453 367 454 367 456 366 457 365 456 363 456 362 455 360 455 359 454 358 455 357 455 357 457 353 461 353 462 352 463 352 465 350 467 350 468 349 469 350 469 350 468 352 466 352 464 353 463 353 462 357 458 357 456 359 454 360 455 361 455 362 456 365 456 367 458 366 457 367 456 367 454 368 453 368 449 369 448 369 447 371 445 370 444 368 444 367 443 366 443 365 442 364 442 363 441 363 440 362 439 361 439 360 438 360 436 359 436 358 435 354 435 353 434 350 434 349 433 348 434 347 433 " style="stroke:pink"/><path d="M448 431 447 432 447 434 449 436 448 437 448 438 447 439 445 437 441 437 440 438 439 438 440 438 441 437 445 437 447 439 446 440 445 440 444 441 438 441 444 441 445 440 447 440 447 439 448 438 448 437 449 436 450 436 449 436 448 435 448 434 447 433 447 432 " style="stroke:pink"/><path d="M489 430 489 434 487 436 487 437 486 438 486 439 485 440 483 438 482 439 484 439 485 440 484 441 483 441 482 442 481 442 479 444 478 444 477 445 476 445 478 445 479 444 480 444 482 442 483 442 484 441 485 441 486 440 486 438 488 436 488 435 489 434 " style="stroke:pink"/><path d="M467 430 466 431 466 432 464 434 461 434 460 435 461 434 465 434 466 433 466 432 467 431 " style="stroke:pink"/><path d="M333 430 333 432 334 433 334 440 335 441 335 442 336 443 336 444 337 445 337 446 337 445 336 444 336 443 335 442 335 441 334 440 334 433 333 432 " style="stroke:pink"/><path d="M487 425 486 426 485 426 483 428 483 429 475 437 474 437 473 436 472 436 471 435 471 436 472 437 470 439 470 443 471 444 471 445 470 446 470 452 471 453 469 455 470 456 470 457 471 458 469 460 469 468 470 468 471 469 472 469 473 470 474 470 473 469 472 469 471 468 470 468 469 467 469 466 470 465 472 465 474 463 475 463 476 462 477 462 478 461 478 460 479 459 480 459 481 458 483 458 479 458 478 459 478 460 476 462 475 462 473 464 472 464 471 465 470 465 469 464 469 461 470 460 471 460 470 459 471 458 472 458 474 456 475 457 477 455 478 455 479 454 481 456 484 456 488 460 488 463 487 464 486 464 485 465 486 465 487 464 488 464 489 463 490 463 489 463 488 462 488 461 489 460 488 460 487 459 487 458 485 456 482 456 481 455 480 455 479 454 478 455 477 455 476 456 474 456 473 457 471 457 469 455 471 453 474 453 475 452 476 452 477 451 478 451 479 450 480 450 482 448 481 449 480 449 479 450 478 450 477 451 476 451 475 452 474 452 473 453 471 453 470 452 470 447 472 445 473 445 474 444 474 443 478 439 479 440 480 440 479 440 478 439 480 437 480 436 485 431 485 430 486 429 486 428 487 427 " style="stroke:pink"/><path d="M405 424 405 426 404 427 404 428 403 429 403 430 398 435 398 436 402 432 402 431 403 430 403 429 405 427 " style="stroke:pink"/><path d="M402 424 401 425 401 426 396 431 396 432 399 429 400 430 399 429 400 428 400 427 403 424 " style="stroke:pink"/><path d="M334 424 335 425 335 427 336 428 336 435 337 436 337 437 336 438 337 439 337 440 338 441 338 443 339 444 339 446 339 443 338 442 338 441 337 440 337 436 336 435 337 434 336 433 336 428 335 427 335 425 " style="stroke:pink"/><path d="M315 423 316 424 316 425 318 427 318 428 319 429 319 430 319 429 318 428 318 426 319 425 318 426 316 424 316 423 " style="stroke:pink"/><path d="M350 421 346 425 344 425 343 426 342 425 341 425 340 424 340 425 342 425 343 426 344 425 346 425 347 424 348 424 350 422 351 422 " style="stroke:pink"/><path d="M348 419 347 420 346 420 344 422 343 422 342 423 341 422 342 423 343 423 344 422 345 422 347 420 348 420 349 419 " style="stroke:pink"/><path d="M323 418 323 425 324 426 324 427 325 428 325 429 321 433 320 433 318 435 318 438 319 438 322 441 322 442 321 443 321 444 320 445 320 447 319 448 317 446 317 445 314 442 314 441 313 440 313 437 313 439 312 440 315 443 315 444 319 448 319 449 320 449 321 450 323 450 324 451 330 451 334 455 334 454 331 451 331 449 329 447 329 448 330 449 330 450 329 451 326 451 325 450 321 450 319 448 321 446 322 447 323 447 322 447 320 445 321 444 322 444 323 445 324 445 325 446 327 446 326 446 325 445 324 445 323 444 322 444 321 443 322 442 322 440 321 439 320 439 318 437 318 436 321 433 322 433 328 439 328 440 329 441 329 442 337 450 337 451 337 450 336 449 336 448 329 441 329 440 327 438 327 437 324 434 323 434 322 433 325 430 325 428 324 427 324 426 323 425 323 419 324 418 326 420 326 422 327 422 330 425 330 428 331 429 331 435 332 436 331 435 331 428 330 427 330 425 329 424 329 422 330 421 329 421 328 422 327 422 326 421 326 420 325 419 325 418 " style="stroke:pink"/><path d="M349 416 350 417 351 417 355 421 357 421 358 422 359 422 360 423 362 423 363 422 362 423 361 423 360 422 358 422 357 421 356 421 352 417 351 417 350 416 " style="stroke:pink"/><path d="M487 410 487 411 484 414 484 415 483 416 483 418 482 419 482 420 484 422 484 423 483 424 483 425 480 428 480 429 479 430 478 429 476 429 475 428 475 429 478 429 479 430 478 431 477 431 475 433 474 433 473 434 474 434 475 433 476 433 480 429 480 428 483 425 483 424 484 423 484 421 482 419 483 418 483 417 484 416 484 415 488 411 " style="stroke:pink"/><path d="M460 409 458 411 455 411 453 413 453 416 452 417 452 418 451 419 451 420 450 421 451 421 451 420 452 419 452 417 453 416 453 414 456 411 459 411 460 410 " style="stroke:pink"/><path d="M334 409 335 410 334 411 334 414 335 415 335 419 336 420 336 421 337 422 338 422 340 420 341 420 343 418 344 418 345 417 344 418 342 418 342 419 341 420 339 418 339 417 338 416 338 415 337 414 337 413 336 412 336 411 " style="stroke:pink"/><path d="M466 408 466 409 467 409 468 408 469 408 468 408 467 409 " style="stroke:pink"/><path d="M485 407 485 408 483 410 483 411 480 414 480 415 483 412 483 411 485 409 485 408 486 407 " style="stroke:pink"/><path d="M466 404 465 405 465 406 464 407 463 407 462 406 457 406 455 408 456 408 458 406 462 406 463 407 464 407 467 404 " style="stroke:pink"/><path d="M332 403 331 404 330 404 331 405 330 406 331 407 331 414 332 415 332 420 332 415 331 414 331 407 330 406 331 405 331 404 332 403 334 405 334 406 335 407 336 407 338 409 338 410 341 413 342 413 343 412 344 413 348 413 349 412 352 412 353 411 354 412 356 412 357 411 360 414 360 415 359 416 361 418 361 419 360 420 361 419 361 418 360 417 360 413 359 412 358 412 357 411 356 411 355 412 354 411 353 411 352 412 351 411 350 412 349 412 348 413 344 413 343 412 342 413 338 409 338 408 337 407 336 407 " style="stroke:pink"/><path d="M468 401 468 402 471 405 471 407 472 408 472 410 473 411 473 413 474 414 474 415 475 416 475 417 476 418 476 422 475 423 475 424 474 425 472 425 471 426 471 429 470 430 470 432 471 433 470 432 470 430 471 429 471 427 473 425 475 425 475 424 476 423 476 417 475 416 475 415 474 414 474 413 473 412 473 411 472 410 472 407 471 406 471 404 470 403 470 402 469 401 " style="stroke:pink"/><path d="M418 400 418 401 419 402 420 402 421 401 422 402 423 402 426 405 427 405 432 410 433 410 428 405 427 405 424 402 423 402 422 401 421 401 420 402 " style="stroke:pink"/><path d="M372 400 374 402 374 403 375 404 375 409 376 410 376 429 375 430 375 435 378 435 382 439 382 440 383 441 384 441 382 439 382 438 380 436 379 436 378 435 376 435 375 434 375 430 376 429 376 410 375 409 375 404 378 401 379 402 379 403 379 402 380 401 379 402 378 401 376 403 375 403 374 402 374 401 373 400 " style="stroke:pink"/><path d="M436 399 435 400 435 407 436 408 436 409 435 410 436 411 436 413 437 414 437 419 436 420 436 421 435 422 436 423 435 424 434 424 432 422 431 422 428 419 428 417 431 414 431 413 428 416 428 420 430 422 432 422 434 424 435 424 436 425 436 426 437 427 437 429 435 431 432 428 428 428 427 429 428 429 429 428 431 428 433 430 434 430 436 432 436 431 437 430 437 427 436 426 436 420 437 419 437 414 436 413 436 408 435 407 435 401 436 400 " style="stroke:pink"/><path d="M424 399 425 399 426 400 428 400 429 401 433 401 429 401 428 400 426 400 425 399 " style="stroke:pink"/><path d="M387 399 386 400 386 401 384 403 384 404 382 406 382 407 381 408 382 409 382 410 381 411 381 415 380 416 380 417 379 418 379 419 378 420 379 421 379 418 380 417 380 416 381 415 381 411 382 410 382 407 384 405 384 404 386 402 386 401 388 399 389 399 " style="stroke:pink"/><path d="M453 398 452 399 451 399 450 400 451 399 452 399 453 398 458 398 " style="stroke:pink"/><path d="M395 398 393 400 392 399 392 402 389 405 388 405 388 406 387 407 387 408 386 409 386 410 385 411 386 412 385 413 385 417 387 419 387 420 388 421 388 423 389 424 389 425 390 426 390 428 391 429 391 431 394 434 394 436 395 437 395 438 397 440 398 439 399 440 400 439 401 439 402 438 403 438 404 437 406 437 407 436 409 436 410 435 411 435 412 434 416 434 417 435 418 434 419 434 421 432 428 432 430 434 431 434 432 435 433 434 435 434 433 434 432 435 431 434 430 434 428 432 421 432 419 434 418 434 417 435 416 434 412 434 411 435 410 435 409 436 407 436 406 437 404 437 403 438 402 438 401 439 400 439 399 440 398 439 397 439 395 437 395 436 394 435 394 433 393 433 392 432 392 431 391 430 391 429 390 428 390 426 389 425 389 424 388 423 388 421 387 420 387 418 385 416 385 414 386 413 386 412 385 411 386 410 386 409 388 407 388 406 389 405 390 405 391 404 391 403 392 402 392 401 393 400 394 400 396 398 " style="stroke:pink"/><path d="M463 397 462 398 461 398 460 399 460 403 461 402 462 403 465 400 466 400 466 397 " style="stroke:pink"/><path d="M390 395 389 396 385 396 384 397 379 397 378 398 370 398 378 398 379 397 384 397 385 396 389 396 390 395 391 395 " style="stroke:pink"/><path d="M339 374 340 375 341 375 342 376 343 376 350 383 350 384 349 385 348 385 344 389 344 390 342 392 342 393 340 395 340 396 338 398 338 399 335 402 336 402 338 400 338 399 340 397 340 396 342 394 342 393 344 391 344 390 349 385 350 385 350 382 344 376 343 376 342 375 341 375 340 374 " style="stroke:pink"/><path d="M342 372 343 372 345 374 346 374 353 381 353 382 356 385 354 387 353 387 352 386 352 385 352 386 353 387 352 388 351 388 350 389 350 390 346 394 346 395 345 396 345 397 342 400 340 400 343 400 345 398 345 397 346 396 346 395 350 391 350 390 353 387 354 387 355 388 355 389 357 391 357 394 356 395 356 396 353 399 352 399 351 400 350 400 349 401 345 401 349 401 350 400 352 400 354 398 355 398 355 397 356 396 357 397 357 398 358 397 359 398 361 396 364 399 364 400 365 401 365 402 366 403 366 405 367 406 367 412 368 413 368 420 367 421 367 425 366 426 366 429 365 430 365 431 364 432 362 430 362 429 361 429 360 428 359 428 358 427 357 427 356 426 355 426 354 427 348 427 357 427 358 428 359 428 360 429 361 429 362 430 362 431 363 432 365 432 365 431 366 430 366 426 367 425 367 421 368 420 368 413 367 412 367 406 366 405 366 403 365 402 365 401 364 400 364 399 363 398 363 397 362 396 361 396 359 398 358 397 357 397 356 396 356 395 357 394 357 390 354 387 356 385 360 389 360 390 362 392 361 393 362 392 363 392 366 395 365 396 366 395 367 396 368 395 369 395 370 394 371 394 369 394 368 395 366 395 365 394 365 393 364 392 363 392 360 389 360 388 353 381 353 380 349 376 348 376 346 374 345 374 343 372 " style="stroke:pink"/><path d="M404 371 403 372 401 372 400 373 399 373 398 374 395 374 394 375 392 375 391 376 390 376 389 377 387 377 386 378 385 378 384 379 383 379 384 380 384 382 390 388 390 389 391 390 391 391 392 392 392 393 393 394 396 394 397 395 413 395 414 394 416 396 428 396 429 397 436 397 429 397 428 396 417 396 416 395 415 395 414 394 414 393 416 391 416 390 423 383 423 381 419 377 418 377 417 376 416 376 412 372 411 372 410 371 " style="stroke:pink"/><path d="M430 368 429 369 423 369 429 369 430 368 432 368 " style="stroke:pink"/><path d="M346 368 345 369 340 369 339 370 338 370 337 371 337 372 336 373 335 373 334 374 333 374 330 377 329 377 321 385 321 386 320 387 320 388 319 389 319 390 318 391 318 393 317 394 317 396 316 397 316 400 315 401 315 404 314 405 314 408 313 409 313 413 312 414 312 420 311 421 311 426 310 427 310 433 309 434 309 443 308 444 308 453 307 454 307 459 306 460 306 470 305 471 305 490 306 491 305 492 306 493 306 517 307 518 307 526 308 527 308 532 309 533 309 535 309 534 310 533 311 534 311 533 312 532 312 523 311 522 311 521 310 520 311 519 311 518 312 517 312 515 315 512 314 512 313 511 313 510 313 511 314 512 313 513 313 514 312 515 312 516 311 517 311 518 310 519 310 520 311 521 311 522 312 523 312 531 310 533 308 531 308 527 307 526 307 518 306 517 306 493 305 492 306 491 305 490 305 471 306 470 306 460 307 459 307 454 308 453 308 444 309 443 309 434 310 433 310 427 311 426 311 421 312 420 312 414 313 413 313 409 314 408 314 405 315 404 315 401 316 400 316 397 317 396 317 394 318 393 318 391 320 389 320 388 321 387 321 386 330 377 331 377 334 374 335 374 336 373 337 373 337 372 339 370 340 370 341 369 345 369 346 368 347 369 348 369 349 370 350 370 354 374 355 374 359 378 359 379 365 385 365 386 371 392 371 391 365 385 365 384 359 378 359 377 357 375 356 375 351 370 350 370 349 369 347 369 " style="stroke:pink"/><path d="M368 365 369 366 370 366 375 371 375 372 378 375 379 375 380 376 380 377 379 378 379 379 380 380 380 383 381 384 381 387 382 388 382 389 381 390 380 390 379 389 379 388 377 386 377 385 375 383 375 382 372 379 372 378 362 368 361 368 360 367 358 367 357 368 354 368 353 369 354 368 357 368 358 367 360 367 372 379 372 380 375 383 375 384 377 386 377 387 379 389 379 390 381 390 382 391 382 388 381 387 381 384 380 383 380 380 379 379 380 378 380 377 382 375 383 375 384 374 385 374 386 373 388 373 389 372 391 372 392 371 394 371 395 370 397 370 398 369 401 369 402 368 412 368 413 369 414 369 415 370 416 370 417 371 418 371 419 372 420 372 421 373 422 373 424 375 425 375 427 377 427 378 428 379 427 380 427 382 426 383 426 385 425 386 425 387 424 388 424 389 423 390 424 391 425 391 426 390 427 390 427 389 430 386 430 385 431 384 431 383 435 379 435 378 442 371 443 371 444 370 451 370 452 371 452 370 453 369 453 368 452 369 451 368 452 369 451 370 447 370 445 368 445 367 445 369 444 370 443 370 442 371 441 371 435 377 435 378 431 382 431 383 430 384 430 385 427 388 427 389 425 391 424 390 424 388 425 387 425 386 426 385 426 383 427 382 427 380 428 379 427 378 427 376 426 375 425 375 423 373 422 373 421 372 420 372 419 371 418 371 417 370 416 370 415 369 413 369 412 368 402 368 401 369 398 369 397 370 395 370 394 371 392 371 391 372 389 372 388 373 386 373 385 374 383 374 382 375 381 375 380 376 375 371 375 370 372 367 371 367 369 365 " style="stroke:pink"/><path d="M387 356 386 357 381 357 386 357 387 356 421 356 422 357 424 357 422 357 421 356 " style="stroke:pink"/><path d="M376 354 " style="stroke:pink"/><path d="M426 349 426 357 427 358 429 358 432 361 432 362 433 363 434 363 435 364 436 364 438 366 437 367 436 367 429 374 429 375 435 369 435 368 436 367 437 367 438 366 441 366 442 367 443 367 442 367 441 366 439 366 437 364 436 364 435 363 434 363 432 361 432 360 431 359 430 359 429 358 428 358 426 356 " style="stroke:pink"/><path d="M382 340 382 341 381 342 383 344 382 345 382 348 381 349 381 350 380 351 380 353 379 354 379 355 376 358 375 358 374 359 372 359 371 360 370 360 368 362 367 362 366 363 362 363 361 364 348 364 347 365 346 365 347 365 348 364 356 364 357 365 358 364 361 364 362 363 367 363 368 362 369 362 371 360 372 360 373 359 374 359 375 358 377 358 379 356 379 355 380 354 380 351 381 350 381 349 382 348 382 345 383 344 382 343 " style="stroke:pink"/><path d="M379 337 380 338 380 339 379 340 380 339 380 337 " style="stroke:pink"/><path d="M436 306 436 313 434 315 434 316 433 317 436 314 " style="stroke:pink"/><path d="M406 274 406 275 405 276 406 277 406 278 407 279 407 280 409 282 410 281 411 282 413 282 411 282 410 281 409 281 407 279 407 278 405 276 407 274 409 274 410 275 413 275 415 277 416 277 423 284 423 285 424 286 424 287 425 288 425 289 426 290 426 291 427 292 427 293 427 291 426 290 426 289 425 288 425 287 424 286 424 285 423 284 423 283 417 277 416 277 415 276 414 276 413 275 410 275 409 274 " style="stroke:pink"/><path d="M396 272 395 273 394 273 392 275 388 275 387 276 387 280 387 277 389 275 392 275 393 276 393 278 394 278 396 280 394 282 391 279 390 279 389 278 394 283 394 285 396 287 396 288 395 289 395 292 394 293 394 296 394 295 395 294 395 292 396 291 397 292 397 293 399 295 400 295 395 290 395 289 396 288 404 296 404 297 405 298 405 299 405 297 401 293 401 292 395 286 395 285 394 284 394 282 395 281 396 281 397 282 397 284 398 285 398 286 400 288 399 287 399 286 401 284 402 284 403 283 403 282 401 284 400 284 400 285 399 286 398 285 398 284 397 283 397 281 398 280 397 280 396 279 397 278 398 278 399 277 401 277 402 276 403 276 401 276 400 277 399 277 398 278 397 278 396 279 395 278 394 278 393 277 393 275 395 273 396 273 397 272 400 272 402 274 403 274 401 272 " style="stroke:pink"/><path d="M395 262 394 263 393 263 392 264 391 264 390 265 389 265 387 267 386 266 386 264 386 266 385 267 386 268 385 269 386 268 387 268 390 265 391 265 393 263 394 263 395 262 401 262 402 263 403 263 404 262 413 262 414 263 417 263 418 264 420 264 422 266 423 266 427 270 428 270 430 272 430 271 429 270 428 270 424 266 423 266 422 265 421 265 420 264 419 264 418 263 414 263 413 262 404 262 403 263 402 263 401 262 " style="stroke:pink"/><path d="M407 256 406 257 402 257 406 257 407 256 411 256 412 257 416 257 417 258 420 258 421 259 422 259 423 260 424 260 428 264 428 265 429 266 428 265 428 264 423 259 421 259 420 258 417 258 416 257 412 257 411 256 " style="stroke:pink"/><path d="M397 251 396 252 394 252 393 253 390 253 389 254 385 254 384 255 383 255 382 256 380 256 379 257 377 257 373 261 373 262 370 265 370 266 369 267 369 268 368 269 368 271 367 272 367 274 366 275 366 280 367 281 367 282 366 283 366 284 365 285 365 288 366 289 365 290 365 291 364 292 364 293 365 294 364 295 364 308 365 309 365 314 366 315 366 318 368 320 368 321 371 324 371 325 372 326 372 328 374 330 374 332 375 333 375 335 376 336 376 338 377 339 377 344 376 345 376 347 375 348 375 349 374 350 374 351 371 354 370 354 369 355 368 355 367 356 366 356 363 359 362 359 361 360 362 360 363 359 364 359 367 356 368 356 369 355 370 355 371 354 372 354 374 352 374 351 375 350 375 348 377 346 376 345 377 344 377 339 376 338 376 336 375 335 375 332 374 331 374 330 373 329 373 328 372 327 372 325 371 324 371 323 368 320 368 319 366 317 366 315 365 314 365 308 364 307 364 296 365 295 365 294 364 293 364 292 365 291 365 290 366 289 365 288 365 285 366 284 366 283 367 282 369 282 368 282 366 280 366 275 367 274 367 272 368 271 368 270 369 269 369 268 370 267 370 266 373 263 373 262 376 259 378 261 373 266 373 267 372 268 372 270 371 271 371 272 370 273 370 275 369 276 369 277 369 276 370 275 370 274 371 273 371 271 372 270 372 269 373 268 373 267 375 265 375 264 376 263 377 263 377 262 378 261 381 261 384 258 385 258 386 257 391 257 391 256 390 257 386 257 385 258 383 258 380 261 379 261 378 260 377 260 376 259 378 257 379 257 380 256 382 256 383 255 384 255 385 254 389 254 390 253 394 253 395 252 397 252 398 251 402 251 403 252 404 252 405 253 413 253 414 254 416 254 417 255 420 255 421 256 423 256 424 257 425 257 430 262 430 263 432 265 432 266 434 268 433 269 432 269 431 268 430 268 433 271 433 272 434 273 434 276 435 277 435 278 436 279 436 280 436 278 435 277 435 276 434 275 434 272 432 270 434 268 436 270 436 271 437 272 437 274 438 275 438 277 439 278 439 281 440 282 440 285 441 286 441 289 442 290 442 291 443 292 443 294 444 295 443 296 443 297 444 298 444 303 445 304 445 308 444 309 443 309 442 308 442 307 441 306 441 304 439 302 439 299 440 298 440 292 439 291 439 288 438 287 439 288 439 291 440 292 440 298 439 299 439 302 440 303 440 304 441 305 441 307 442 308 442 309 441 310 441 312 440 313 440 314 438 316 438 317 437 318 436 317 437 318 435 320 434 320 433 321 431 321 428 324 428 326 427 327 427 330 426 331 426 332 424 334 424 336 416 344 415 344 414 345 412 345 410 343 407 343 406 344 392 344 391 343 390 343 388 341 387 341 385 339 385 338 383 336 383 334 378 329 378 328 377 327 377 326 375 324 375 322 372 319 372 316 371 315 371 313 370 312 370 311 369 310 369 309 368 308 368 306 367 305 367 296 367 305 368 306 368 308 369 309 369 310 370 311 370 313 371 314 371 315 372 316 372 317 371 318 372 319 372 320 375 323 375 324 376 325 376 326 377 327 377 328 378 329 378 330 383 335 383 336 384 337 384 338 385 339 385 340 386 341 387 341 389 343 390 343 391 344 406 344 407 343 409 343 410 344 411 344 412 345 415 345 416 344 417 344 423 338 423 337 424 336 424 335 425 334 425 333 427 331 427 327 428 326 428 325 432 321 434 321 439 316 439 315 441 313 441 310 442 309 443 309 444 310 444 313 443 314 443 315 441 317 441 318 434 325 434 326 433 327 433 328 432 329 432 331 430 333 430 335 429 336 429 338 428 339 428 346 429 347 429 349 430 350 430 351 431 352 431 353 440 362 442 362 443 363 445 363 446 364 449 364 450 365 454 365 455 366 456 366 461 371 462 371 463 372 465 372 466 373 467 373 469 375 468 376 464 376 463 377 462 377 460 379 459 379 457 381 455 379 457 377 458 377 460 375 461 375 462 374 463 374 461 374 460 375 459 375 456 378 455 378 454 379 454 380 446 388 446 389 440 395 438 395 437 394 436 394 435 393 435 392 436 391 437 391 437 390 441 386 441 385 453 373 454 373 456 371 457 371 455 371 453 373 452 373 442 383 442 384 437 389 437 390 436 391 435 391 434 392 435 393 435 394 437 394 438 395 440 395 441 394 442 394 446 390 446 389 452 383 452 382 453 381 454 381 454 380 455 379 457 381 454 384 454 385 449 390 449 391 446 394 446 396 447 397 444 400 444 413 445 414 445 418 446 419 446 425 447 426 447 428 449 428 450 427 450 425 451 424 451 423 450 424 450 427 449 428 448 428 447 427 447 426 446 425 446 418 445 417 445 414 444 413 444 400 445 399 446 399 447 398 447 397 446 396 446 395 449 392 449 391 454 386 454 385 460 379 461 379 464 376 469 376 470 377 471 377 472 378 473 378 481 386 481 387 482 388 482 389 483 390 483 391 485 393 485 394 486 395 486 397 487 398 487 399 488 400 488 402 489 403 489 405 490 406 490 408 491 409 491 413 492 414 492 418 493 419 493 424 494 425 494 430 495 431 495 447 496 448 496 452 497 453 497 461 498 462 498 468 499 469 499 481 498 482 498 500 499 501 499 503 500 504 500 508 499 509 499 524 498 525 498 529 497 530 497 532 496 533 496 534 495 535 495 537 494 538 494 539 492 541 491 541 490 540 490 539 489 538 489 535 488 534 488 528 489 527 490 527 488 527 487 526 488 525 490 525 489 525 488 524 488 522 489 521 489 515 490 514 492 514 495 517 495 518 494 519 492 519 494 519 495 520 495 517 496 516 495 516 494 515 493 515 492 514 490 514 489 515 488 515 487 514 486 514 485 513 485 512 483 510 483 508 481 506 481 504 480 503 479 503 477 501 476 501 474 499 473 499 470 496 470 495 469 494 469 493 468 493 467 494 467 499 468 500 468 501 471 504 472 504 480 512 479 513 479 515 478 516 479 515 479 513 480 512 481 513 480 512 480 511 474 505 475 504 474 505 473 504 472 504 467 499 467 494 468 493 469 494 469 495 470 496 470 497 472 499 473 499 475 501 476 501 478 503 479 503 481 505 481 507 483 509 483 510 484 511 484 512 485 513 485 514 486 514 487 515 488 515 489 516 489 520 488 521 488 522 487 523 485 523 487 523 488 524 488 525 487 526 486 526 487 526 488 527 488 534 489 535 489 538 490 539 490 541 491 541 492 542 494 540 494 539 495 538 495 536 496 535 496 534 497 533 497 530 498 529 498 525 499 524 499 509 500 508 500 504 499 503 499 501 498 500 498 482 499 481 499 469 498 468 498 462 497 461 497 453 496 452 496 448 495 447 495 431 494 430 494 425 493 424 493 419 492 418 492 414 491 413 491 409 490 408 490 406 489 405 489 403 488 402 488 400 487 399 487 398 486 397 486 395 485 394 485 392 483 390 483 389 482 388 482 387 481 386 481 385 474 378 473 378 472 377 471 377 466 372 464 372 463 371 462 371 457 366 455 366 454 365 450 365 449 364 446 364 445 363 443 363 442 362 441 362 431 352 431 351 429 349 429 347 428 346 428 339 429 338 429 336 430 335 430 334 431 333 431 332 432 331 432 330 433 329 433 328 434 327 434 326 441 319 441 318 443 316 443 314 444 313 444 309 445 308 445 304 444 303 444 298 443 297 443 296 444 295 443 294 443 291 442 290 442 289 441 288 441 285 440 284 440 281 439 280 439 278 438 277 438 275 437 274 437 272 436 271 436 269 432 265 432 264 430 262 430 261 426 257 424 257 423 256 421 256 420 255 417 255 416 254 414 254 413 253 406 253 405 252 404 252 403 251 " style="stroke:pink"/></svg>